<svg width="17" height="17" viewBox="0 0 17 17" fill="none" xmlns="http://www.w3.org/2000/svg">
    <circle cx="8.5" cy="8.5" r="8.5" fill="#412F59"/>
    <path d="M8.223 3.666a.3.3 0 0 1 .554 0l1.107 2.662a.3.3 0 0 0 .253.184l2.875.23a.3.3 0 0 1 .171.528l-2.19 1.876a.3.3 0 0 0-.097.297l.67 2.805a.3.3 0 0 1-.449.326l-2.46-1.504a.3.3 0 0 0-.313 0l-2.461 1.504a.3.3 0 0 1-.448-.326l.669-2.805a.3.3 0 0 0-.097-.297L3.817 7.27a.3.3 0 0 1 .171-.527l2.875-.23a.3.3 0 0 0 .253-.185l1.107-2.662z" fill="#F5D0BA"/>
</svg>
