<svg width="99" height="98" viewBox="0 0 99 98" fill="none" xmlns="http://www.w3.org/2000/svg">
    <path d="M72.973 51.04C70.537 62.944 61.09 71.832 49.776 71.832c-11.31 0-20.759-8.888-23.194-20.792h-3.474c1.77 15.693 13.031 27.795 26.668 27.795 13.64 0 24.898-12.102 26.668-27.795h-3.47z" fill="#fff"/>
    <path d="M49.778 95.677c-25.812 0-46.812-21-46.812-46.812 0-25.81 21-46.81 46.812-46.81 25.81 0 46.81 21 46.81 46.81 0 25.812-21 46.812-46.81 46.812zm0-87.448C27.37 8.229 9.14 26.457 9.14 48.865c0 22.407 18.23 40.637 40.638 40.637 22.407 0 40.636-18.23 40.636-40.637 0-22.408-18.229-40.636-40.636-40.636z" fill="#fff"/>
    <path d="M42.152 38.252a14.53 14.53 0 0 0-9.136-3.184c-3.094 0-6.05.948-8.552 2.744l-3.22-4.481a20.043 20.043 0 0 1 11.772-3.785c4.618 0 8.965 1.517 12.57 4.385l-3.434 4.32zm32.504-.002a14.517 14.517 0 0 0-9.13-3.182 14.55 14.55 0 0 0-8.552 2.744l-3.223-4.481a20.042 20.042 0 0 1 11.774-3.785c4.554 0 9.018 1.558 12.57 4.387l-3.44 4.317z" fill="#fff"/>
</svg>
