<svg width="319" height="55" viewBox="0 0 319 55" fill="none" xmlns="http://www.w3.org/2000/svg">
    <path d="M211.819 28.998c-1.337 6.534-6.522 11.411-12.731 11.411-6.207 0-11.392-4.877-12.729-11.41h-1.906c.971 8.612 7.152 15.253 14.635 15.253 7.486 0 13.664-6.642 14.635-15.254h-1.904z" fill="#fff"/>
    <path d="M199.089 53.495c-14.165 0-25.69-11.525-25.69-25.69 0-14.165 11.525-25.69 25.69-25.69 14.165 0 25.689 11.525 25.689 25.69 0 14.165-11.524 25.69-25.689 25.69zm0-47.99c-12.297 0-22.301 10.003-22.301 22.3s10.004 22.301 22.301 22.301c12.297 0 22.301-10.004 22.301-22.301 0-12.297-10.004-22.3-22.301-22.3z" fill="#fff"/>
    <path d="M194.904 21.98a7.974 7.974 0 0 0-5.014-1.747 7.99 7.99 0 0 0-4.692 1.506l-1.767-2.46a10.998 10.998 0 0 1 6.459-2.076c2.535 0 4.921.832 6.899 2.406l-1.885 2.371zm17.838 0a7.967 7.967 0 0 0-5.011-1.747c-1.7 0-3.322.52-4.693 1.506l-1.768-2.46a10.998 10.998 0 0 1 6.461-2.076c2.499 0 4.949.855 6.898 2.407l-1.887 2.37zM266.123 28.998c-1.336 6.534-6.521 11.411-12.73 11.411-6.207 0-11.392-4.877-12.729-11.41h-1.906c.971 8.612 7.151 15.253 14.635 15.253 7.485 0 13.664-6.642 14.635-15.254h-1.905z" fill="#fff"/>
    <path d="M253.394 53.495c-14.165 0-25.69-11.525-25.69-25.69 0-14.165 11.525-25.69 25.69-25.69 14.164 0 25.689 11.525 25.689 25.69 0 14.165-11.525 25.69-25.689 25.69zm0-47.99c-12.297 0-22.302 10.003-22.302 22.3s10.005 22.301 22.302 22.301c12.297 0 22.301-10.004 22.301-22.301 0-12.297-10.004-22.3-22.301-22.3z" fill="#fff"/>
    <path d="M249.209 21.98a7.976 7.976 0 0 0-5.014-1.747c-1.698 0-3.32.52-4.693 1.506l-1.767-2.46a11.001 11.001 0 0 1 6.46-2.076c2.535 0 4.92.832 6.899 2.406l-1.885 2.371zm17.838 0a7.969 7.969 0 0 0-5.011-1.747c-1.7 0-3.322.52-4.693 1.506l-1.769-2.46a11 11 0 0 1 6.462-2.076c2.499 0 4.949.855 6.898 2.407l-1.887 2.37zM0 53.335h14.226V33.292h10.061v-9.196h-10.06V13.8h12.497V1.617H0v51.718zM30.1 53.335h27.588V41.152H44.326v-9.746h9.825V23.31h-9.825V13.8h12.812V1.617H30.1v51.718zM61.197 53.335h27.588V41.152H75.424v-9.746h9.825V23.31h-9.825V13.8h12.811V1.617H61.197v51.718zM92.295 53.335h25.151v-12.34H106.6V1.617H92.295v51.718zM148.993 53.964c5.267 0 8.332-2.358 9.432-7.624h.079c0 3.38-.236 6.602-.314 6.995h11.082V27.24h-16.899v7.467h4.716v.708c0 5.108-1.257 7.152-4.008 7.152-3.302 0-4.795-3.851-4.795-14.305 0-10.846 1.572-15.17 4.952-15.17 2.829 0 4.087 2.201 4.087 7.389 0 .864 0 2.436-.079 3.851h11.712c0-1.179.157-3.301.157-4.873 0-12.419-4.638-18.47-16.742-18.47-12.654 0-18.549 8.488-18.549 27.116 0 18 4.952 25.859 15.169 25.859zM283.08 53.335h16.899c13.755 0 19.021-7.074 19.021-26.016 0-18.156-5.502-25.702-20.121-25.702H283.08v51.718zm14.227-12.183V13.8h2.358c3.694 0 5.03 3.38 5.03 13.519 0 10.375-1.258 13.833-4.795 13.833h-2.593z" fill="#fff"/>
</svg>
