<svg width="40" height="40" viewBox="0 0 40 40" fill="none" xmlns="http://www.w3.org/2000/svg">
    <g clip-path="url(#v9zulaplra)">
        <mask id="ado97mu7db" style="mask-type:luminance" maskUnits="userSpaceOnUse" x="0" y="0" width="40" height="40">
            <path d="M39.414.065h-39v39h39v-39z" fill="#fff"/>
        </mask>
        <g mask="url(#ado97mu7db)" fill-rule="evenodd" clip-rule="evenodd">
            <path d="M39.415 19.563c0 10.772-8.731 19.501-19.502 19.501-10.77 0-19.498-8.73-19.498-19.501C.415 8.793 9.144.064 19.913.064c10.771 0 19.502 8.73 19.502 19.499z" fill="#4C4294"/>
            <path d="M5.886 16.799h2.559v1.44h-2.56v4.14c0 .954.687 1.225 1.153 1.225.578 0 1.172-.198 1.82-.594v1.495c-.559.304-1.424.538-1.945.538-1.747 0-2.629-1.078-2.629-2.538v-4.267H2.881v-.178l3.005-2.935v1.674zM16.564 24.413c-.74.485-1.046.63-1.548.63-.704 0-1.08-.25-1.225-.828-.704.558-1.44.829-2.18.829-1.188 0-1.978-.935-1.978-1.982 0-1.601 1.457-2.086 2.754-2.555l1.42-.502v-.433c0-1.01-.485-1.423-1.456-1.423-.882 0-1.783.413-2.556 1.331v-1.743c.628-.74 1.512-1.1 2.681-1.1 1.638 0 2.936.829 2.936 2.665v4.157c0 .307.106.416.304.416.162 0 .488-.162.848-.433v.971zm-2.757-3.526c-1.367.465-2.556.934-2.556 1.888 0 .667.486 1.137 1.153 1.137.505 0 .974-.255 1.403-.668v-2.357zM22.541 18.886c-.898-.591-1.747-.845-2.341-.845-.647 0-1.06.306-1.06.74 0 .359.538.791 1.961 1.617 1.334.884 1.82 1.443 1.82 2.271 0 1.42-1.136 2.374-2.665 2.374-.99 0-1.767-.197-2.81-.736v-1.73c1.043.72 1.998 1.063 2.648 1.063.647-.036 1.186-.343 1.186-.917 0-1.116-3.781-1.71-3.781-3.89 0-1.367 1.046-2.196 2.664-2.196.76 0 1.533.215 2.378.667v1.582zM26.288 16.799h2.556v1.44h-2.556v4.14c0 .954.684 1.225 1.153 1.225.574 0 1.168-.198 1.816-.594v1.495c-.558.304-1.423.538-1.945.538-1.747 0-2.629-1.078-2.629-2.538v-4.267H23.28v-.178l3.008-2.935v1.674zM36.802 24.09c-.97.647-1.852.954-3.223.954-2.52 0-3.922-2.07-3.922-4.303 0-2.446 1.548-4.104 3.78-4.104 2.14 0 3.51 1.46 3.51 4.448h-5.689c.251 1.601 1.172 2.43 2.717 2.43.975 0 1.893-.36 2.827-.974v1.548zm-1.44-4.068c-.052-1.225-.756-1.998-1.889-1.998-1.224 0-1.964.72-2.18 1.998h4.07zM14.663 9.713h-.932c.393.366.568.677.568 1.09 0 1.836-2.33 1.232-2.33 2.027 0 .895 2.684-.201 2.684 1.535 0 .75-.684 1.2-1.836 1.2-1.262 0-1.8-.513-1.8-1.097 0-.522.43-.879 1.195-.997v-.02c-.438-.1-.667-.3-.667-.585 0-.366.34-.518.823-.667v-.016c-.823-.238-1.097-.869-1.097-1.364 0-.684.43-1.463 1.747-1.463h1.645v.357zm-1.737 3.969c-.512 0-1.49.072-1.49.756 0 .486.502.76 1.407.76.842 0 1.39-.31 1.39-.797 0-.574-.568-.72-1.307-.72zm-.155-3.96c-.611 0-1.077.477-1.077 1.07 0 .611.466 1.117 1.086 1.117a1.1 1.1 0 0 0 1.097-1.1c0-.6-.492-1.087-1.106-1.087zM17.908 10.172c-.393-.357-.594-.469-.822-.469-.403 0-.868.422-1.317 1.179v2.579h-.44V9.356h.44v1.08h.02c.482-.77.977-1.163 1.433-1.163.284 0 .538.129.94.486l-.254.413zM18.628 11.258a1.65 1.65 0 0 0 1.638 1.856c.548 0 .997-.182 1.525-.614v.495a2.47 2.47 0 0 1-1.582.548c-1.188 0-2.046-.914-2.046-2.182 0-1.21.795-2.087 1.885-2.087.875 0 1.816.614 1.816 1.985h-3.236zm2.714-.356c-.155-.803-.59-1.199-1.294-1.199-.677 0-1.208.449-1.364 1.199h2.658zM26.025 13.114l-.073.056c-.413.31-.584.373-.76.373-.2 0-.257-.099-.294-.512-.455.357-.848.512-1.287.512-.62 0-1.106-.465-1.106-1.043 0-1.067 1.198-1.444 2.393-1.496v-.522c0-.548-.3-.842-.91-.842-.44 0-.77.155-1.255.522v-.45c.502-.31.878-.438 1.327-.438.512 0 1.278.21 1.278 1.07v2.558c0 .165.03.212.102.212.1 0 .363-.192.585-.367v.367zm-1.127-1.747c-1.069-.046-1.954.422-1.954 1.133 0 .386.347.676.812.676.393 0 .714-.145 1.142-.528v-1.281zM27.451 9.356H28.6v.357H27.45v2.44c0 .707.01.96.61.96.248 0 .384-.035.75-.2v.419a2.22 2.22 0 0 1-.848.211c-.46 0-.951-.254-.951-.878V9.713h-1.107v-.357h1.107v-.977l.3-.383h.14v1.36zM35.148 15.518v-.569h.32l.274.569h.198l-.287-.591c.188-.024.304-.156.304-.33 0-.248-.172-.354-.525-.354h-.456v1.274h.172zm0-1.156h.25c.258 0 .384.066.384.228 0 .195-.113.245-.384.245h-.25v-.473zm-.446 1.231a.974.974 0 0 1-.29-.696.99.99 0 0 1 .293-.703.993.993 0 0 1 1.4.003.987.987 0 0 1 .288.7.95.95 0 0 1-.288.693 1.006 1.006 0 0 1-.707.298.982.982 0 0 1-.696-.295zm1.48.077c.207-.205.32-.469.32-.773a1.097 1.097 0 0 0-1.103-1.1c-.298 0-.565.112-.77.317a1.11 1.11 0 0 0-.326.783c0 .294.112.565.323.776.208.208.482.327.772.327.291 0 .568-.119.783-.33z" fill="#fff"/>
            <path d="M19.912 3.845c-6.293 0-11.732 3.721-14.241 9.077l.67.311c2.384-5.105 7.565-8.645 13.571-8.645 6.01 0 11.19 3.54 13.575 8.645l.667-.31c-2.507-5.357-7.945-9.078-14.242-9.078zM19.912 34.54c-4.603 0-8.723-2.08-11.47-5.352l-.562.472c2.886 3.434 7.208 5.623 12.032 5.623 4.828 0 9.15-2.189 12.036-5.623l-.565-.472a14.937 14.937 0 0 1-11.47 5.353z" fill="#fff"/>
            <path d="M19.913 5.077c-5.749 0-10.765 3.407-13.043 8.288l-.04.092.142.066.043-.092c2.249-4.884 7.202-8.209 12.898-8.209s10.652 3.325 12.9 8.209l.047.092.142-.066-.043-.092c-2.278-4.88-7.294-8.288-13.046-8.288zM19.913 34.065c4.418 0 8.284-1.955 10.975-5.075l.106-.125-.122-.103-.102.125C28.128 31.97 24.29 33.9 19.913 33.9c-4.376 0-8.213-1.928-10.854-5.013l-.112-.122-.122.103.112.122c2.694 3.12 6.557 5.075 10.976 5.075z" fill="#fff"/>
        </g>
    </g>
    <defs>
        <clipPath id="v9zulaplra">
            <path fill="#fff" transform="translate(.415 .064)" d="M0 0h39v39H0z"/>
        </clipPath>
    </defs>
</svg>
