<?xml version="1.0" encoding="utf-8"?>
<!-- Generator: Adobe Illustrator 27.2.0, SVG Export Plug-In . SVG Version: 6.00 Build 0)  -->
<svg version="1.1" id="Layer_1" xmlns="http://www.w3.org/2000/svg" xmlns:xlink="http://www.w3.org/1999/xlink" x="0px" y="0px"
	 viewBox="0 0 119.1 130.4" style="enable-background:new 0 0 119.1 130.4;" xml:space="preserve">
<style type="text/css">
	.st0{fill:#FFFFFF;}
	.st1{fill:#412F59;}
</style>
<g>
	<g>
		<circle class="st0" cx="60.1" cy="64.3" r="42.5"/>
		<path class="st1" d="M60.1,109.9c-25.2,0-45.6-20.5-45.6-45.6S35,18.7,60.1,18.7s45.6,20.5,45.6,45.6S85.3,109.9,60.1,109.9
			L60.1,109.9z M60.1,24.8c-21.7,0-39.4,17.7-39.4,39.4s17.7,39.4,39.4,39.4S99.5,86,99.5,64.3S81.8,24.8,60.1,24.8z"/>
	</g>
	<g>
		<g>
			<path class="st1" d="M66.2,43.1c-4.2,4.2-6.1,9.8-5.7,15.3c5.5,0.4,11.1-1.5,15.3-5.7s6.1-9.8,5.7-15.3
				C76,37,70.4,38.9,66.2,43.1z"/>
			<path class="st1" d="M54,43.1c4.2,4.2,6.1,9.8,5.7,15.3c-5.5,0.4-11.1-1.5-15.3-5.7s-6.1-9.8-5.7-15.3C44.2,37,49.8,38.9,54,43.1
				z"/>
		</g>
		<g>
			<path class="st1" d="M66.2,61.4c-4.2,4.2-6.1,9.8-5.7,15.3C66,77,71.6,75.2,75.8,71c4.2-4.2,6.1-9.8,5.7-15.3
				C76,55.3,70.4,57.2,66.2,61.4z"/>
			<path class="st1" d="M54,61.4c4.2,4.2,6.1,9.8,5.7,15.3C54.2,77,48.6,75.2,44.4,71s-6.1-9.8-5.7-15.3
				C44.2,55.3,49.8,57.2,54,61.4z"/>
		</g>
		<g>
			<path class="st1" d="M66.2,79.7c-4.2,4.2-6.1,9.8-5.7,15.3c5.5,0.4,11.1-1.5,15.3-5.7s6.1-9.8,5.7-15.3
				C76,73.6,70.4,75.5,66.2,79.7z"/>
			<path class="st1" d="M54,79.7c4.2,4.2,6.1,9.8,5.7,15.3c-5.5,0.4-11.1-1.5-15.3-5.7s-6.1-9.8-5.7-15.3
				C44.2,73.6,49.8,75.5,54,79.7z"/>
		</g>
	</g>
</g>
<g>
	<path class="st1" d="M2.5,86.4l1.2,2.5c-1,0.4-1.4,1-0.9,2.2c0.5,1.1,1.1,1.1,1.7,0.9c0.4-0.2,0.6-0.4,0.6-0.8S4.8,90,4.6,89.3
		c-0.2-0.8-0.4-1.8-0.3-2.5c0.1-1,0.7-1.6,1.7-2.1c2-1,4.1-0.2,5.4,2.4c1.4,3,0.4,4.6-1.8,5.6l-1.1-2.4c1-0.5,1.3-1.1,0.9-2
		c-0.4-0.9-1-1.1-1.6-0.8c-0.4,0.2-0.6,0.4-0.6,0.7c0,0.3,0.2,1.2,0.4,2C7.9,91.3,8,92.1,8,92.7c-0.1,0.8-0.7,1.5-1.7,2
		c-1.9,0.9-3.9,0.8-5.5-2.5C-0.9,88.9,0.6,87.3,2.5,86.4L2.5,86.4z"/>
	<path class="st1" d="M8.9,95.4c2.9-2.2,6-1.8,7.9,0.8c1.9,2.6,1.4,5.6-1.6,7.8c-3,2.2-6,1.9-8-0.7C5.3,100.6,5.9,97.6,8.9,95.4z
		 M13.3,101.4c1.6-1.2,1.9-2.5,1.2-3.5c-0.7-0.9-2-1.1-3.7,0.1s-2,2.6-1.3,3.5C10.3,102.5,11.6,102.6,13.3,101.4z"/>
	<path class="st1" d="M15.8,106.2l4.6-5.1l2.4,2.1l-4.5,4.9c-0.9,1-0.8,1.9-0.1,2.6c0.8,0.7,1.7,0.7,2.6-0.3l4.5-4.9l2,1.8l-4.6,5.1
		c-2.2,2.4-4.5,2.4-6.7,0.5C13.9,111,13.6,108.6,15.8,106.2z"/>
	<path class="st1" d="M28.1,108l3.9,2.4c2.6,1.6,3,3.4,1.9,5.2c-0.7,1.2-1.6,1.8-2.7,1.5l0,0c0.8,0.8,0.6,1.9,0,2.9l-1.5,2.4
		l-2.7-1.7l1.5-2.4c0.5-0.8,0.4-1.2-0.2-1.6l-1.4-0.8l-2.1,3.5l-2.7-1.7C22.1,117.8,28.1,108,28.1,108z M29.2,115.2
		c0.7,0.4,1.3,0.3,1.7-0.5c0.4-0.7,0.4-1.4-0.4-1.8l-1.2-0.8l-1.4,2.3C27.9,114.4,29.2,115.2,29.2,115.2z"/>
	<path class="st1" d="M34.4,118.5c1.3-3.5,4-4.9,6.9-3.8s3.7,3.5,2.8,5.9c-0.1,0.2-0.2,0.5-0.3,0.7l-2.5-0.9
		c0.1-0.2,0.1-0.3,0.2-0.4c0.5-1.3,0-2.2-1-2.5c-1.2-0.4-2.4,0.3-3.1,2.1c-0.7,1.9-0.2,3.2,0.9,3.6c1,0.4,1.9,0,2.4-1.2
		c0-0.1,0.1-0.1,0.1-0.4l2.5,0.9c-0.1,0.2-0.1,0.4-0.2,0.5c-0.9,2.5-3.2,3.8-6,2.7C34.1,124.7,33.2,121.9,34.4,118.5L34.4,118.5z"/>
	<path class="st1" d="M46.6,116.7l7,1.3l-0.5,2.8l-3.9-0.7l-0.4,1.9l2.9,0.5l-0.3,1.8l-2.9-0.5l-0.4,2l4,0.8l-0.5,2.8l-7.1-1.3
		C44.5,128,46.6,116.7,46.6,116.7z"/>
	<path class="st1" d="M58.5,124.1c-0.2-3.6,1.7-6,5-6.2c3.2-0.2,5.5,1.9,5.7,5.5c0.2,3.7-1.7,6.1-5,6.3
		C61,130,58.8,127.9,58.5,124.1L58.5,124.1z M65.9,123.7c-0.1-2-1.1-3-2.2-2.9c-1.2,0.1-2,1.1-1.9,3.2s1.1,3,2.3,3
		C65.2,126.9,66.1,125.8,65.9,123.7z"/>
	<path class="st1" d="M69.7,117.5l6.8-1.7l0.7,2.8l-3.8,0.9l0.5,2.1l3-0.7l0.5,2.1l-3,0.7l1,4.2l-3.1,0.8L69.7,117.5L69.7,117.5z"/>
	<path class="st1" d="M80.9,114.2l6.3-3.1l1.3,2.6l-3.5,1.7l1,2l2.8-1.4l0.9,1.9l-2.8,1.4l1.9,3.9l-2.8,1.4L80.9,114.2L80.9,114.2z"
		/>
	<path class="st1" d="M88.1,110.4l2.6-1.7l6.3,9.7l-2.6,1.7L88.1,110.4z"/>
	<path class="st1" d="M92,108l3.4-2.9c2.2-1.9,3.8-1.6,5-0.3c0.8,0.9,1.1,1.9,0.5,2.8l0,0c1.1-0.6,2.3-0.2,3.1,0.8
		c1.3,1.6,1.4,3.3-0.9,5.2l-3.6,3.1L92,108z M98.6,108.6c0.5-0.5,0.6-1,0.1-1.6s-1.1-0.6-1.7-0.1l-1,0.8l1.5,1.7
		C97.5,109.6,98.6,108.6,98.6,108.6z M101.4,111.8c0.5-0.5,0.5-1.1,0-1.7c-0.4-0.5-1-0.6-1.6-0.1l-1.1,0.9l1.6,1.8
		C100.3,112.8,101.4,111.8,101.4,111.8z"/>
	<path class="st1" d="M99.3,101.6l2.9-3.6c1.9-2.4,3.8-2.5,5.4-1.2c1.1,0.9,1.5,1.9,1.1,2.9l0,0c0.9-0.7,1.9-0.4,2.9,0.4l2.2,1.8
		l-2,2.5l-2.2-1.8c-0.7-0.6-1.2-0.6-1.6,0l-1,1.3l3.2,2.6l-2,2.5C108.3,108.9,99.3,101.6,99.3,101.6z M106.6,101.5
		c0.5-0.6,0.4-1.2-0.3-1.8c-0.7-0.5-1.3-0.5-1.9,0.2l-0.9,1.1l2.1,1.7L106.6,101.5z"/>
	<path class="st1" d="M105.5,93.7l3.5-6.2l2.5,1.4l-1.9,3.5l1.7,1l1.5-2.6l1.6,0.9l-1.5,2.6l1.8,1l2-3.6l2.5,1.4l-3.6,6.3
		L105.5,93.7L105.5,93.7z"/>
</g>
</svg>
