<?xml version="1.0" encoding="utf-8"?>
<!-- Generator: Adobe Illustrator 27.2.0, SVG Export Plug-In . SVG Version: 6.00 Build 0)  -->
<svg version="1.1" id="Layer_1" xmlns="http://www.w3.org/2000/svg" xmlns:xlink="http://www.w3.org/1999/xlink" x="0px" y="0px"
	 viewBox="0 0 119.1 130.4" style="enable-background:new 0 0 119.1 130.4;" xml:space="preserve">
<style type="text/css">
	.st0{fill:#FFFFFF;}
	.st1{fill:#412F59;}
</style>
<g>
	<g>
		<circle class="st0" cx="59.5" cy="64.2" r="43"/>
		<path class="st1" d="M59.5,110.2c-25.4,0-46-20.6-46-46s20.6-46,46-46s46,20.6,46,46S84.9,110.2,59.5,110.2z M59.5,24.2
			c-22.1,0-40,17.9-40,40s17.9,40,40,40s40-17.9,40-40S81.6,24.2,59.5,24.2z"/>
	</g>
	<g>
		<path class="st1" d="M37.8,83.3l2.5,2.3c1.4,1.3,1.5,2.5,0.4,3.6c-1,1.1-2.2,1.1-3.6-0.2l-1-0.9l-1.3,1.4l-1.5-1.4
			C33.3,88.2,37.8,83.3,37.8,83.3z M38,88c0.5,0.5,0.9,0.5,1.2,0.1s0.3-0.7-0.2-1.2l-0.9-0.8L37,87.2C37.1,87.2,38,88,38,88z"/>
		<path class="st1" d="M42.7,87.8l4.5,2.7L46.3,92l-2.7-1.6l-0.5,0.8l2,1.2l-0.6,0.9l-2-1.2L42.1,93l2.8,1.6L44,96.1l-4.6-2.7
			L42.7,87.8L42.7,87.8z"/>
		<path class="st1" d="M47.9,90.7l3.3,1.1c2.1,0.7,2.5,1.6,2.1,2.8c-0.2,0.6-0.6,1.2-1.5,1.2l0,0c0.8,0.5,0.7,1.2,0.5,1.8l-0.4,1.3
			l-2-0.6l0.4-1.4c0.2-0.5,0.1-0.8-0.4-1l-1.3-0.4l-0.7,2.2l-2-0.6L47.9,90.7L47.9,90.7z M50.2,94.8c0.6,0.2,0.9,0,1-0.4
			s0-0.7-0.7-0.9l-1.2-0.4l-0.4,1.3C48.9,94.4,50.2,94.8,50.2,94.8z"/>
		<path class="st1" d="M57.1,93.1l3.4-0.1c2,0,2.8,0.7,2.8,2.3c0,1.5-0.8,2.3-2.7,2.3h-1.3v1.9h-2.1C57.2,99.7,57.1,93.1,57.1,93.1z
			 M60.5,96.3c0.7,0,1-0.3,1-0.8s-0.3-0.8-1-0.8h-1.2v1.6L60.5,96.3z"/>
		<path class="st1" d="M68.5,97.2l-2.6,0.6L65.7,99l-2.1,0.5l1.2-7l2.6-0.6l4.2,5.8l-2.4,0.6C69.2,98.3,68.5,97.2,68.5,97.2z
			 M67.8,96.2l-1.4-2l0,0l-0.3,2.4L67.8,96.2z"/>
		<path class="st1" d="M70.8,94.5c-0.9-1.7-0.5-3.6,1.7-4.6c2.3-1.1,3.6-0.1,4.2,1c0,0,0.1,0.1,0.1,0.2l-1.6,0.8l0,0
			c-0.2-0.5-0.9-0.8-1.7-0.4c-0.9,0.4-1,1.3-0.6,2.1c0.4,0.8,1.1,1.3,2.1,0.8c0.8-0.4,1-1,0.7-1.6l0,0l1.6-0.8
			c0,0.1,0.1,0.1,0.1,0.1c0.6,1.2,0.5,2.8-1.7,3.9C73.1,97.1,71.6,96,70.8,94.5z"/>
		<path class="st1" d="M76,88.2l1.6-1.4l1.9,2.2l0,0l0.1-4l1.8-1.6l-0.2,3.9L86,88l-2.1,1.9L81,89.3l-0.1,1.1l1.1,1.2L80.4,93
			L76,88.2L76,88.2z"/>
	</g>
	<g>
		<path class="st1" d="M42.5,39.8c-1-2-0.6-4.2,2.2-5.6c2.8-1.3,4.8-0.3,5.8,1.7s0.7,4.3-2.2,5.7C45.6,42.9,43.6,42,42.5,39.8z
			 M48.1,37.1c-0.5-1-1.4-1.5-2.5-1s-1.2,1.5-0.8,2.5c0.5,1.1,1.4,1.5,2.5,1C48.5,39.1,48.7,38.1,48.1,37.1L48.1,37.1z"/>
		<path class="st1" d="M52,31.5l3.5-0.4l3,3.8l0,0l-0.4-4l2.2-0.2l0.8,7.8l-2.9,0.3l-3.7-4.6l0,0l0.5,4.9l-2.2,0.2L52,31.5L52,31.5z
			"/>
		<path class="st1" d="M64.1,31.1l2.5,0.6l-1.3,5.5l3.4,0.8l-0.5,2.2l-5.9-1.4L64.1,31.1z"/>
		<path class="st1" d="M71.7,38.4l-0.8-5.8l2.8,1.5l0.3,3.1l0,0l2.7-1.4L79,37l-5,2.6l-1.5,2.8l-2.3-1.2L71.7,38.4L71.7,38.4z"/>
	</g>
	<g>
		<path class="st1" d="M29.5,75c0-3.1,2.6-5.3,7.5-5.3c5.1,0,6.9,2.3,7,4.3c0,0.1,0,0.2,0,0.3h-3.3v-0.1c0-0.7-1-1.7-3.4-1.7
			c-2.6,0-3.8,1-3.8,2.4c0,1.3,1,2.4,3.8,2.4c2.4,0,3.4-0.8,3.4-1.6v-0.1H44c0,0.1,0,0.2,0,0.3c0,2.3-2,4.3-7,4.3
			C31.8,80.3,29.5,77.9,29.5,75L29.5,75z"/>
		<path class="st1" d="M56.4,78.4h-6.1l-1,1.8H45L51.3,70H56l6.3,10.2h-4.9C57.4,80.1,56.4,78.4,56.4,78.4z M55.3,76.4l-2-3.5l0,0
			l-2,3.5C51.4,76.4,55.3,76.4,55.3,76.4z"/>
		<path class="st1" d="M63.5,69.9h3.8v7h7.1v3.2H63.5V69.9z"/>
		<path class="st1" d="M75.5,76.7h3.3c0,0.7,0.6,1.2,3.4,1.2c2.9,0,3.4-0.4,3.4-0.9c0-0.3-0.2-0.5-0.9-0.6c-0.7-0.1-2.3-0.2-3.7-0.2
			c-1.3-0.1-3.3-0.2-4.2-0.6c-0.9-0.4-1.4-1-1.4-2.1c0-1.9,2-3.6,7-3.6c5.7,0,6.6,1.9,6.6,3.6h-3.3c0-0.6-0.8-1.1-3.2-1.1
			c-2.3,0-3.2,0.4-3.2,0.9c0,0.3,0.2,0.5,0.7,0.6s2.2,0.2,3.6,0.3c1.6,0.1,3.2,0.2,4.4,0.5c1.1,0.4,1.6,1.1,1.6,2.2
			c0,1.5-0.8,3.8-7.1,3.8C75.9,80.3,75.5,77.8,75.5,76.7L75.5,76.7z"/>
	</g>
</g>
<g>
	<path class="st1" d="M51.3,52.4L51.3,52.4H38.1V47h20.3v5c-5.6,3.2-8.3,7.7-8.9,13.4h-8.4C41.9,59.1,46,55,51.3,52.4L51.3,52.4z"/>
	<path class="st1" d="M60.8,60.2c0-0.3,0-0.5,0.1-0.7h5.9v0.2c0,0.9,1,1.5,3.8,1.5c2.5,0,3.3-0.8,3.3-2c0-1.1-0.9-1.9-3.4-1.9
		c-2.2,0-2.9,0.6-3.2,1l-6-0.5l1-10.8h16.9v5H67.7l-0.4,4h0.1c0.8-1.3,2.5-2.1,6.1-2.1c5.6,0,7.4,2.5,7.4,5.4c0,3.4-2.4,6.3-9.7,6.3
		C62.3,65.7,60.8,62.8,60.8,60.2L60.8,60.2z"/>
</g>
</svg>
