<?xml version="1.0" encoding="utf-8"?>
<!-- Generator: Adobe Illustrator 27.2.0, SVG Export Plug-In . SVG Version: 6.00 Build 0)  -->
<svg version="1.1" id="Layer_1" xmlns="http://www.w3.org/2000/svg" xmlns:xlink="http://www.w3.org/1999/xlink" x="0px" y="0px"
	 viewBox="0 0 119.1 130.4" style="enable-background:new 0 0 119.1 130.4;" xml:space="preserve">
<style type="text/css">
	.st0{fill:#FFFFFF;}
	.st1{fill:#484A9F;}
</style>
<g>
	<circle class="st0" cx="59" cy="64.4" r="41.7"/>
	<path class="st1" d="M59,109.2c-24.7,0-44.8-20.1-44.8-44.8S34.3,19.7,59,19.7s44.8,20.1,44.8,44.8S83.7,109.2,59,109.2z M59,25.7
		c-21.3,0-38.7,17.4-38.7,38.7s17.4,38.7,38.7,38.7s38.7-17.4,38.7-38.7S80.4,25.7,59,25.7z"/>
</g>
<g>
	<path class="st1" d="M8.8,25.9l2.1-2.4l3.2,2.7l2.1-2.4L13,21.1l2.1-2.4l8.8,7.5l-2.1,2.4l-3.4-2.9l-2.1,2.4l3.4,2.9l-2.1,2.4
		L8.8,25.9L8.8,25.9z"/>
	<path class="st1" d="M28.3,19.9l-2.5,1.9l0.8,2l-2.5,1.9L20,14.4l3.2-2.4l9.8,7l-3,2.3L28.3,19.9L28.3,19.9z M26.8,18.7l-3.5-2.9
		l0,0L25,20L26.8,18.7z"/>
	<path class="st1" d="M31.8,15.3l2.5-1.2c0.4,1,1,1.4,2.2,0.9c1.1-0.5,1.1-1.1,0.9-1.7c-0.2-0.4-0.4-0.6-0.8-0.6
		c-0.4,0-1.2,0.3-1.9,0.5c-0.8,0.2-1.8,0.4-2.5,0.3c-0.8-0.2-1.4-0.8-1.9-1.8c-1-2-0.2-4.1,2.4-5.3c3-1.4,4.6-0.4,5.6,1.9l-2.4,1.1
		c-0.5-1-1.1-1.3-2-0.9c-0.9,0.4-1.1,1-0.8,1.6c0.2,0.4,0.4,0.6,0.7,0.6s1.2-0.2,2-0.4c1.1-0.3,1.9-0.4,2.5-0.3
		c0.8,0.1,1.5,0.7,2,1.7c0.9,1.9,0.8,3.9-2.6,5.5C34.3,18.6,32.7,17.1,31.8,15.3z"/>
	<path class="st1" d="M41.5,10.9l2.7-0.7c0.3,1,0.8,1.6,1.9,1.3c1.2-0.3,1.3-0.9,1.2-1.5c-0.1-0.4-0.3-0.7-0.7-0.7s-1.3,0-2,0.1
		c-0.9,0.1-1.9,0.1-2.5-0.2c-0.7-0.3-1.3-1-1.5-2.1C39.9,4.9,41,3,43.9,2.3c3.2-0.8,4.5,0.5,5.2,2.9l-2.6,0.6
		c-0.3-1-0.8-1.5-1.8-1.2c-1,0.2-1.3,0.8-1.1,1.4c0.1,0.4,0.3,0.7,0.6,0.8c0.3,0.1,1.2,0,2.1,0c1.1-0.1,1.9-0.1,2.5,0.1
		c0.8,0.3,1.4,1,1.6,2.1c0.5,2,0,4-3.6,4.9C43.3,14.7,42,12.9,41.5,10.9z"/>
	<path class="st1" d="M51.5,1l3.2-0.2l0.6,8.6l3.8-0.3l0.2,2.9l-7,0.5C52.2,12.5,51.5,1,51.5,1z"/>
	<path class="st1" d="M61.3,0.6l7.1,0.7l-0.3,2.9l-3.9-0.4l-0.2,2l3,0.3l-0.2,1.8l-3-0.3l-0.2,2l4.1,0.4l-0.3,2.9L60.2,12L61.3,0.6z
		"/>
	<path class="st1" d="M69.7,7.1l3.6,0.8L72.8,10l-3.6-0.8L69.7,7.1z"/>
	<path class="st1" d="M77.1,3.2l6.6,2.4l-1,2.7L79.1,7l-0.8,2.1l2.9,1.1l-0.7,2l-2.9-1.1l-1.5,4.1l-3-1.1L77.1,3.2L77.1,3.2z"/>
	<path class="st1" d="M86.4,6.8l4,2.3c2.7,1.5,3.1,3.3,2,5.2c-0.7,1.2-1.6,1.8-2.7,1.6l0,0c0.8,0.8,0.7,1.8,0.1,2.9l-1.4,2.4
		l-2.7-1.6l1.4-2.4c0.5-0.8,0.4-1.2-0.2-1.6l-1.4-0.8l-2.1,3.5l-2.7-1.6L86.4,6.8L86.4,6.8z M87.6,14c0.7,0.4,1.3,0.3,1.7-0.5
		c0.4-0.7,0.3-1.4-0.4-1.8L87.7,11l-1.3,2.3C86.3,13.2,87.6,14,87.6,14z"/>
	<path class="st1" d="M96.7,13.2l5.4,4.6l-1.9,2.2l-3-2.6l-1.3,1.5l2.3,1.9L97,22.2l-2.3-1.9l-1.3,1.5l3.1,2.7l-1.9,2.2L89.2,22
		L96.7,13.2L96.7,13.2z"/>
	<path class="st1" d="M104.2,20l4.6,5.5l-2.2,1.9l-2.6-3l-1.5,1.3l1.9,2.3l-1.4,1l-1.9-2.3L99.6,28l2.6,3.1L100,33l-4.7-5.6
		L104.2,20L104.2,20z"/>
</g>
<g>
	<path class="st1" d="M7.7,94.9l1.6,2.3c-0.9,0.6-1.2,1.3-0.5,2.3s1.3,0.9,1.8,0.6c0.4-0.3,0.5-0.5,0.4-0.9s-0.5-1.2-0.8-1.8
		c-0.4-0.8-0.8-1.7-0.7-2.4c0-0.8,0.5-1.6,1.4-2.2c1.8-1.3,4-1,5.7,1.4c1.9,2.7,1.3,4.4-0.8,5.9l-1.6-2.2c0.9-0.6,1.1-1.3,0.5-2.2
		c-0.6-0.8-1.2-0.9-1.7-0.5c-0.4,0.3-0.5,0.5-0.5,0.8c0.1,0.3,0.4,1.1,0.8,1.9c0.5,1,0.8,1.7,0.8,2.4c0,0.9-0.4,1.6-1.3,2.3
		c-1.7,1.2-3.7,1.5-5.9-1.5C4.9,98,6,96.1,7.7,94.9L7.7,94.9z"/>
	<path class="st1" d="M19.7,98.6l3.2,3l-2.5,6.7l0,0l4.5-4.9l2,1.9l-7.9,8.4l-2.9-2.7l3-7.9l0,0l-5.3,5.7l-2-1.9
		C11.8,107,19.7,98.6,19.7,98.6z"/>
	<path class="st1" d="M28.3,117.4l-2.7-1.6l-1.5,1.5l-2.7-1.6l9-8.1l3.5,2.1l-3,11.7l-3.2-1.9C27.7,119.4,28.3,117.4,28.3,117.4z
		 M28.9,115.5l1.4-4.3l0,0l-3.2,3.2C27,114.4,28.9,115.5,28.9,115.5z"/>
	<path class="st1" d="M35.3,117.1c1.2-3.6,3.9-5,6.8-3.9c2.9,1,3.8,3.4,2.9,5.9c-0.1,0.2-0.2,0.5-0.2,0.7l-2.5-0.9
		c0.1-0.2,0.1-0.3,0.1-0.4c0.5-1.3-0.1-2.2-1-2.5c-1.2-0.4-2.4,0.3-3,2.2c-0.7,1.9-0.2,3.2,1,3.6c1,0.4,1.9-0.1,2.3-1.3
		c0,0,0.1-0.1,0.1-0.4l2.5,0.9c-0.1,0.2-0.1,0.4-0.2,0.6c-0.9,2.5-3.1,3.8-5.9,2.8C35.1,123.3,34.1,120.5,35.3,117.1L35.3,117.1z"/>
	<path class="st1" d="M47.4,115l3.1,0.4l-0.7,5.2l0,0l4-4.7l3.5,0.5l-4.2,4.7l3,6.8l-3.9-0.5l-1.7-4.4l-1.1,1.1l-0.4,2.8l-3.1-0.4
		L47.4,115L47.4,115z"/>
	<path class="st1" d="M62,116.2l4.4-0.6c2.7-0.4,4.3,0.8,4.7,3.6c0.4,2.6-0.6,4.2-3.3,4.6l-1.5,0.2l0.4,3.2l-3.1,0.4L62,116.2
		L62,116.2z M67.3,121.7c0.8-0.1,1.2-0.6,1-1.8c-0.1-1.1-0.7-1.5-1.6-1.4l-1.2,0.2l0.4,3.2L67.3,121.7z"/>
	<path class="st1" d="M73,120.4c-1.2-3.4,0.1-6.3,3.1-7.3c3.1-1.1,5.8,0.4,7,3.8c1.2,3.5,0,6.3-3.1,7.4S74.2,124,73,120.4L73,120.4z
		 M80,118c-0.7-1.9-1.8-2.6-2.9-2.2s-1.6,1.6-1,3.5c0.7,2,1.9,2.6,3,2.3C80.1,121.2,80.6,120,80,118z"/>
	<path class="st1" d="M85.4,117l-3.5-5.9l2.7-1.6l3.4,5.7c0.7,1.2,1.6,1.3,2.5,0.8s1.2-1.4,0.5-2.6l-3.4-5.7l2.3-1.4l3.5,5.9
		c1.7,2.8,1,5.1-1.5,6.5C89.4,120.2,87,119.8,85.4,117z"/>
	<path class="st1" d="M94.3,110.2c-2.5-2.8-2.5-5.8-0.2-7.9s4.8-1.7,6.5,0.3c0.2,0.2,0.4,0.4,0.5,0.5l-2,1.8
		c-0.1-0.1-0.2-0.3-0.3-0.3c-0.9-1-1.9-1-2.7-0.3c-0.9,0.8-0.8,2.2,0.5,3.7c1.4,1.5,2.7,1.7,3.6,0.8c0.8-0.7,0.9-1.7,0-2.7
		c0,0-0.1-0.1-0.3-0.3l2-1.8c0.2,0.2,0.3,0.3,0.4,0.4c1.8,2,1.9,4.5-0.4,6.6C99.7,113.4,96.8,112.9,94.3,110.2L94.3,110.2z"/>
	<path class="st1" d="M98.3,98.7l1.9-2.5l3.3,2.5l1.9-2.6l-3.3-2.5l1.9-2.5l9.3,6.8l-1.9,2.5l-3.6-2.6l-1.9,2.6l3.6,2.6l-1.9,2.5
		C107.6,105.5,98.3,98.7,98.3,98.7z"/>
</g>
<path class="st1" d="M74.2,37.3c0-0.9-0.7-1.6-1.6-1.6S71,36.4,71,37.3c0,0.6,0.4,1.2,0.9,1.5l-3.7,6.9l-3.7-7.1
	c0.4-0.3,0.7-0.8,0.7-1.3c0-0.9-0.7-1.6-1.6-1.6S62,36.4,62,37.3c0,0.5,0.3,1,0.7,1.3l-3.8,7.1l-3.7-7.1c0.4-0.3,0.7-0.8,0.7-1.3
	c0-0.9-0.7-1.6-1.6-1.6c-0.9,0-1.6,0.7-1.6,1.6c0,0.6,0.3,1,0.7,1.3l-3.7,7.1l-3.6-6.9c0.7-0.2,1.1-0.8,1.1-1.5
	c0-0.9-0.7-1.6-1.6-1.6c-0.9,0-1.6,0.7-1.6,1.6c0,0.7,0.5,1.3,1.2,1.5l0.6,13.7h26.7l0.6-13.6C73.6,38.8,74.2,38.1,74.2,37.3z"/>
<path class="st1" d="M74.4,54.6L74.4,54.6l-30.8,0.1v-0.1c-3.9,3.9-6.3,9.3-6.3,15.3c0,12,9.7,21.6,21.6,21.6s21.6-9.7,21.6-21.6
	C80.7,63.9,78.3,58.5,74.4,54.6z M50.7,60.2c2.3,0,4.5,0.8,6.2,2.2l-1.7,2.1c-1.3-1-2.9-1.6-4.5-1.6c-1.5,0-3,0.5-4.2,1.4l-1.6-2.2
	C46.6,60.9,48.6,60.2,50.7,60.2L50.7,60.2z M59,84.6c-6.8,0-12.3-6-13.2-13.8h1.7c1.2,5.9,5.9,10.3,11.5,10.3s10.3-4.4,11.5-10.3
	h1.7C71.3,78.7,65.8,84.6,59,84.6z M71.3,64.6c-1.3-1-2.9-1.6-4.5-1.6c-1.5,0-3,0.5-4.2,1.4L61,62.1c1.7-1.2,3.7-1.9,5.8-1.9
	c2.3,0,4.5,0.8,6.2,2.2C73,62.4,71.3,64.6,71.3,64.6z"/>
</svg>
