<?xml version="1.0" encoding="utf-8"?>
<!-- Generator: Adobe Illustrator 27.2.0, SVG Export Plug-In . SVG Version: 6.00 Build 0)  -->
<svg version="1.1" id="Layer_1" xmlns="http://www.w3.org/2000/svg" xmlns:xlink="http://www.w3.org/1999/xlink" x="0px" y="0px"
	 viewBox="0 0 119.1 130.4" style="enable-background:new 0 0 119.1 130.4;" xml:space="preserve">
<style type="text/css">
	.st0{fill:#FFFFFF;}
	.st1{fill:#412F59;}
</style>
<g>
	<g>
		<circle class="st0" cx="59.5" cy="64.2" r="42.9"/>
		<g>
			<path class="st1" d="M21.3,103.2l3.4,2.8l-2,6.9l0,0l4.1-5.2l2.1,1.7l-7.3,9l-3.1-2.5l2.4-8.1l0,0l-4.9,6.1l-2.1-1.7L21.3,103.2
				L21.3,103.2z"/>
			<path class="st1" d="M27.1,115.1c1.7-3.3,4.6-4.3,7.5-2.8c2.9,1.5,3.7,4.5,2.1,7.7c-1.7,3.3-4.6,4.4-7.6,2.9
				C26.2,121.4,25.3,118.5,27.1,115.1z M33.7,118.5c0.9-1.8,0.6-3.1-0.4-3.7c-1-0.5-2.3,0-3.3,1.8c-1,1.9-0.6,3.2,0.4,3.7
				C31.4,120.9,32.7,120.4,33.7,118.5z"/>
			<path class="st1" d="M41.9,123.8l2.7,0.6c-0.2,1,0,1.7,1.2,2s1.6-0.2,1.7-0.8c0.1-0.4,0-0.7-0.3-1c-0.3-0.2-1.2-0.5-1.8-0.8
				c-0.8-0.3-1.7-0.8-2.2-1.3c-0.5-0.6-0.7-1.5-0.4-2.6c0.5-2.2,2.3-3.4,5.2-2.8c3.3,0.7,3.9,2.4,3.4,4.9l-2.6-0.6
				c0.2-1.1-0.1-1.7-1.1-1.9c-1-0.2-1.5,0.1-1.6,0.7c-0.1,0.4,0,0.7,0.2,1c0.3,0.2,1.1,0.6,1.9,0.9c1,0.4,1.7,0.8,2.2,1.3
				c0.6,0.6,0.8,1.5,0.5,2.6c-0.4,2-1.8,3.6-5.4,2.8C41.8,128,41.4,125.9,41.9,123.8z"/>
			<path class="st1" d="M55.5,121.4l-2.5-0.1l0.1-3l8.2,0.4l-0.1,3l-2.5-0.1l-0.4,8.6l-3.2-0.1L55.5,121.4z"/>
			<path class="st1" d="M62.7,124.5c-0.5-3.6,1.3-6.2,4.5-6.6c3.2-0.5,5.7,1.5,6.2,5.1c0.5,3.7-1.2,6.3-4.5,6.7
				C65.6,130.2,63.2,128.3,62.7,124.5L62.7,124.5z M70.1,123.5c-0.3-2-1.3-2.9-2.5-2.7c-1.2,0.2-1.9,1.3-1.6,3.3
				c0.3,2.1,1.3,3,2.5,2.8C69.6,126.7,70.4,125.6,70.1,123.5z"/>
			<path class="st1" d="M73.3,117l4.2-1.5l4.9,5.3l0,0l-2.3-6.2l2.6-0.9l3.9,10.9l-3.7,1.3l-5.7-6.2l0,0L80,127l-2.6,0.9L73.3,117
				L73.3,117z"/>
			<path class="st1" d="M83.7,113.1l6.2-3.6l1.4,2.5l-3.5,2l1,1.7l2.6-1.5l0.9,1.6l-2.6,1.5l1,1.8l3.6-2.1l1.4,2.5l-6.3,3.7
				L83.7,113.1z"/>
			<path class="st1" d="M95.5,115l2.2-1.8c0.7,0.8,1.4,1.1,2.3,0.3c0.9-0.8,0.8-1.4,0.4-1.8c-0.3-0.3-0.6-0.5-1-0.3
				c-0.4,0.1-1.1,0.6-1.8,0.9c-0.8,0.4-1.7,0.9-2.4,0.9c-0.8,0-1.6-0.4-2.3-1.3c-1.4-1.8-1.3-3.9,1-5.8c2.6-2.1,4.3-1.6,5.9,0.4
				l-2.1,1.7c-0.7-0.8-1.4-1-2.2-0.3c-0.8,0.6-0.8,1.3-0.4,1.7c0.3,0.4,0.6,0.5,0.9,0.4s1.1-0.5,1.9-0.9c1-0.5,1.7-0.9,2.4-1
				c0.9-0.1,1.7,0.3,2.4,1.2c1.3,1.6,1.7,3.6-1.1,6C98.8,117.6,96.9,116.6,95.5,115L95.5,115z"/>
		</g>
		<path class="st1" d="M59.5,110.2c-25.3,0-46-20.6-46-46s20.6-46,46-46s46,20.6,46,46S84.9,110.2,59.5,110.2z M59.5,24.5
			c-21.9,0-39.7,17.8-39.7,39.7s17.8,39.7,39.7,39.7s39.7-17.8,39.7-39.7S81.4,24.5,59.5,24.5z"/>
	</g>
	<g>
		<path class="st1" d="M91.7,72.7c0-0.1,0.1-0.2,0.1-0.3c0-0.1,0.1-0.2,0.1-0.3c0.6-1.7,0.9-3.4,1.1-5.1c0.3-3,0-5.8-0.8-8.1
			c-0.6-2.3-1.4-4.4-2.1-6.4c-0.3-0.8-0.5-1.6-0.7-2.4c-0.1-0.4-0.1-1.5-0.5-1.8c-0.1-0.1-0.3-0.1-0.5-0.1c-0.6,0-1.1,0.7-1.5,1.1
			c-0.6,0.5-1.3,1-2,1.4c-1.9,1.1-3.8,2.4-5.6,3.8c-2.1,1.3-4,3.4-5.6,5.9c-0.9,1.4-1.7,2.9-2.3,4.7c0,0.1-0.1,0.2-0.1,0.3
			c0,0.1-0.1,0.2-0.1,0.3c-0.6,1.7-0.9,3.4-1.1,5.1c-0.3,3,0,5.8,0.8,8.1c0.6,2.3,1.4,4.4,2.1,6.4c0.2,0.6,0.4,1.2,0.6,1.8
			c0.1,0.5,0.2,1.1,0.3,1.6c0.1,0.2,0.2,0.4,0.3,0.5c0.1,0.1,0.3,0.1,0.5,0.1c0.7,0,1-0.5,1.6-0.9c0.6-0.5,1.2-0.9,1.9-1.4
			c1.9-1.1,3.8-2.4,5.6-3.8c2.1-1.3,4-3.4,5.6-5.9C90.3,75.9,91.1,74.4,91.7,72.7z"/>
		<path class="st0" d="M74.8,89.6C74.8,89.6,74.7,89.6,74.8,89.6c-0.3,0-0.5-0.1-0.7-0.2s-0.4-0.4-0.5-0.6c-0.1-0.3-0.2-0.7-0.2-1
			c0-0.2-0.1-0.5-0.1-0.7c-0.1-0.6-0.3-1.2-0.6-1.8c-0.7-1.8-1.5-4.1-2.1-6.5c-0.8-2.4-1.1-5.2-0.8-8.2c0.1-1.7,0.5-3.5,1.1-5.1
			l0.2-0.5c0.6-1.7,1.4-3.3,2.3-4.7c1.6-2.6,3.6-4.6,5.7-6c1.9-1.5,4-2.7,5.6-3.8c0.7-0.5,1.4-0.9,2-1.4c0.1-0.1,0.2-0.2,0.3-0.3
			c0.4-0.4,0.8-0.8,1.4-0.8c0.2,0,0.5,0,0.7,0.1c0.4,0.3,0.5,1,0.6,1.6c0,0.2,0,0.3,0.1,0.4c0.2,0.8,0.4,1.5,0.7,2.4
			c0.7,1.8,1.5,4.1,2.1,6.5c0.8,2.4,1.1,5.2,0.8,8.2c-0.1,1.7-0.5,3.5-1.1,5.1L92,72.8c-0.6,1.7-1.3,3.2-2.3,4.7
			c-1.6,2.6-3.6,4.6-5.7,6c-1.9,1.5-4,2.7-5.6,3.8c-0.7,0.4-1.3,0.9-1.9,1.3c-0.1,0.1-0.2,0.2-0.3,0.3
			C75.8,89.2,75.4,89.6,74.8,89.6L74.8,89.6z M88.5,48.6C88.4,48.6,88.4,48.6,88.5,48.6c-0.4,0-0.7,0.3-1,0.6
			c-0.1,0.1-0.3,0.3-0.4,0.4c-0.6,0.5-1.3,1-2,1.5c-1.7,1-3.7,2.3-5.6,3.8c-2.1,1.3-4,3.3-5.5,5.8c-0.9,1.4-1.7,2.9-2.2,4.6
			l-0.2,0.5c-0.6,1.6-0.9,3.3-1,5c-0.3,2.9,0,5.7,0.8,8c0.6,2.3,1.4,4.6,2.1,6.4c0.2,0.6,0.4,1.2,0.6,1.8c0.1,0.2,0.1,0.5,0.1,0.7
			c0.1,0.3,0.1,0.6,0.2,0.9c0,0.1,0.1,0.2,0.2,0.3c0.1,0,0.2,0.1,0.3,0.1c0.4,0,0.6-0.2,1-0.5c0.1-0.1,0.2-0.2,0.4-0.3
			c0.6-0.5,1.2-0.9,2-1.4c1.7-1,3.7-2.3,5.6-3.8c2.1-1.3,4-3.3,5.5-5.8c0.9-1.4,1.7-2.9,2.2-4.6l0,0l0.2-0.5c0.6-1.6,0.9-3.3,1-5
			c0.3-2.9,0-5.7-0.8-8c-0.6-2.3-1.4-4.6-2.1-6.4c-0.3-0.9-0.6-1.7-0.7-2.5c0-0.1,0-0.3-0.1-0.5c0-0.3-0.1-1-0.2-1.1
			C88.7,48.6,88.6,48.6,88.5,48.6L88.5,48.6z"/>
	</g>
	<g>
		<path class="st1" d="M48.8,67.2c0-0.1-0.1-0.2-0.1-0.3c0-0.1-0.1-0.2-0.1-0.3c-0.5-1.8-1.3-3.3-2.1-4.7c-1.5-2.6-3.4-4.7-5.4-6.1
			c-1.8-1.5-3.7-2.8-5.5-4c-0.7-0.5-1.4-1-2-1.6c-0.5-0.4-1.3-1.5-2-0.8c-0.4,0.5-0.4,1.3-0.5,1.9c-0.2,0.7-0.4,1.4-0.7,2.1
			c-0.8,2-1.7,4.1-2.3,6.4c-1,2.4-1.3,5.2-1.1,8.2c0.1,1.6,0.4,3.3,0.9,5.1c0,0.1,0.1,0.2,0.1,0.3c0,0.1,0.1,0.2,0.1,0.3
			c0.5,1.8,1.3,3.3,2.1,4.7c1.5,2.6,3.4,4.7,5.4,6.1c1.8,1.5,3.7,2.8,5.5,4c0.6,0.4,1.1,0.8,1.6,1.2c0.4,0.4,0.8,0.9,1.4,1.1
			c0.3,0.1,0.7,0.1,0.9-0.1c0.1-0.2,0.2-0.4,0.3-0.6c0.3-1.1,0.6-2.2,1-3.3c0.8-2,1.7-4.1,2.3-6.4c0.9-2.3,1.3-5.1,1.1-8.1
			C49.6,70.7,49.4,69,48.8,67.2z"/>
		<path class="st0" d="M44.5,91.2c-0.2,0-0.4,0-0.5-0.1c-0.4-0.2-0.8-0.5-1.1-0.8c-0.1-0.1-0.3-0.3-0.4-0.4c-0.5-0.4-1-0.8-1.6-1.2
			c-1.6-1.1-3.7-2.4-5.5-4c-2.1-1.4-4-3.6-5.5-6.2c-0.9-1.5-1.6-3.1-2.2-4.8l-0.2-0.6c-0.5-1.7-0.8-3.4-0.9-5.2
			c-0.2-3,0.2-5.9,1.1-8.2c0.7-2.3,1.6-4.6,2.3-6.4c0.3-0.7,0.5-1.4,0.7-2.1c0-0.2,0.1-0.4,0.1-0.6c0.1-0.5,0.1-1,0.5-1.4
			c0.2-0.2,0.5-0.3,0.7-0.3l0,0c0.6,0,1.1,0.5,1.5,0.9c0.1,0.1,0.2,0.2,0.2,0.2c0.6,0.5,1.2,1,2,1.5c1.7,1.1,3.7,2.5,5.5,4
			c2.1,1.4,4,3.6,5.5,6.2c0.9,1.5,1.6,3.1,2.2,4.8l0.2,0.6c0.5,1.7,0.8,3.4,0.9,5.2c0.2,3-0.2,5.9-1.1,8.2c-0.7,2.3-1.5,4.5-2.3,6.4
			c-0.4,1.1-0.7,2.2-1,3.2c-0.1,0.2-0.1,0.5-0.3,0.7C45.1,91.1,44.8,91.2,44.5,91.2L44.5,91.2z M32.1,49.7c-0.1,0-0.1,0-0.3,0.1
			c-0.2,0.2-0.3,0.7-0.3,1.1c0,0.2-0.1,0.4-0.1,0.6c-0.2,0.7-0.4,1.4-0.7,2.2c-0.7,1.8-1.6,4.1-2.3,6.3c-0.9,2.3-1.3,5-1,8
			c0.1,1.7,0.4,3.4,0.9,5l0.2,0.6c0.5,1.6,1.2,3.2,2.1,4.6c1.5,2.5,3.3,4.6,5.3,6c1.9,1.5,3.9,2.9,5.5,4c0.6,0.4,1.1,0.8,1.6,1.2
			c0.1,0.1,0.3,0.3,0.4,0.4c0.3,0.3,0.5,0.5,0.9,0.7c0.2,0.1,0.4,0.1,0.6-0.1c0.1-0.1,0.1-0.3,0.2-0.4c0.3-1.1,0.6-2.2,1.1-3.3
			c0.8-1.9,1.6-4.1,2.3-6.3c0.9-2.3,1.3-5,1-8c-0.1-1.7-0.4-3.4-0.9-5l-0.2-0.6c-0.5-1.6-1.2-3.2-2.1-4.6c-1.5-2.5-3.3-4.6-5.3-6
			c-1.8-1.5-3.8-2.8-5.5-4c-0.8-0.5-1.5-1-2.1-1.6c-0.1-0.1-0.2-0.1-0.2-0.2C32.8,50.1,32.4,49.7,32.1,49.7L32.1,49.7z"/>
	</g>
	<g>
		<path class="st1" d="M62.7,98.7c-0.5,0-1-0.2-1.4-0.6c-0.3-0.3-0.5-0.6-0.7-0.9c-0.1-0.2-0.2-0.3-0.3-0.5l-0.1-0.1
			c-0.8-1.2-1.8-2.4-3.1-3.7c-2.2-2.3-4.8-4.8-7.1-7.8c-2.7-2.8-4.9-6.7-6.4-11.2c-0.9-2.5-1.5-5.2-1.8-8v-0.5V65
			c-0.3-2.8-0.2-5.5,0.2-8.2c0.6-4.7,2.1-8.9,4.3-12.2c1.7-3.2,3.8-6.3,5.5-8.9c1-1.5,1.8-2.9,2.3-4.3c0.1-0.2,0.1-0.3,0.2-0.5
			c0.1-0.4,0.3-0.9,0.6-1.4c0.1-0.1,0.3-0.3,0.5-0.5c0.2-0.1,0.5-0.2,0.8-0.2l0,0c0.4,0,0.6,0,0.9,0.1c0.6,0.3,0.9,0.8,1.1,1.2
			l0.1,0.2c0.3,0.5,0.7,1.1,1.1,1.6c0.7,0.9,1.5,1.8,2.4,2.8c2.1,2.2,4.8,4.8,7.1,7.8c2.7,2.8,4.9,6.7,6.4,11.2
			c0.9,2.5,1.5,5.2,1.8,8v0.5v0.4c0.3,2.7,0.2,5.5-0.2,8.2c-0.6,4.7-2.1,8.9-4.3,12.2c-1.7,3.2-3.8,6.3-5.5,8.9
			c-0.5,0.8-1,1.6-1.4,2.4c-0.5,0.9-0.9,1.8-1.2,2.7C64.4,97.4,64,98.6,62.7,98.7L62.7,98.7L62.7,98.7z"/>
		<path class="st0" d="M56.4,30c0.1,0,0.3,0,0.4,0.1c0.4,0.1,0.5,0.6,0.7,0.9c0.4,0.6,0.7,1.2,1.2,1.7c0.8,1,1.6,2,2.5,2.9
			c2.4,2.4,4.8,4.9,7,7.7c2.6,2.7,4.8,6.5,6.2,10.8c0.8,2.4,1.5,4.9,1.7,7.8c0,0.1,0,0.3,0,0.4c0,0.1,0,0.3,0,0.4
			c0.3,2.8,0.2,5.5-0.2,8c-0.6,4.6-2.1,8.7-4.1,11.8c-1.7,3.2-3.6,6.1-5.5,8.8c-0.5,0.8-1,1.6-1.5,2.5s-0.9,1.8-1.3,2.8
			c-0.1,0.4-0.4,1-0.9,1.1l0,0c-0.2,0-0.5-0.1-0.6-0.3c-0.2-0.2-0.3-0.4-0.4-0.6c-0.1-0.3-0.3-0.5-0.5-0.8c-0.9-1.4-2-2.7-3.2-3.9
			c-2.4-2.4-4.8-4.9-7-7.7c-2.6-2.7-4.8-6.5-6.2-10.8c-0.8-2.4-1.5-4.9-1.7-7.8c0-0.1,0-0.3,0-0.4s0-0.3,0-0.4
			c-0.3-2.8-0.2-5.5,0.2-7.9c0.6-4.6,2.1-8.7,4.1-11.8c1.7-3.2,3.6-6.1,5.5-8.8c0.9-1.4,1.8-2.9,2.4-4.5c0.2-0.5,0.3-1.1,0.7-1.6
			c0.1-0.1,0.1-0.1,0.2-0.2C56.1,30,56.2,30,56.4,30L56.4,30 M56.4,27.9L56.4,27.9L56.4,27.9c-0.6,0-1,0.1-1.4,0.3
			c-0.3,0.2-0.6,0.4-0.8,0.8c-0.4,0.6-0.6,1.2-0.8,1.7c0,0.1-0.1,0.3-0.1,0.4c-0.5,1.3-1.3,2.7-2.2,4.1c-1.7,2.5-3.8,5.6-5.5,9
			c-2.2,3.4-3.7,7.8-4.4,12.6c-0.4,2.7-0.5,5.6-0.2,8.4c0,0.1,0,0.2,0,0.3v0.2v0.1c0,0.1,0,0.2,0,0.3c0.3,2.8,0.9,5.6,1.8,8.3
			c1.5,4.5,3.8,8.5,6.6,11.5c2.3,2.9,5,5.6,7.1,7.8c1.2,1.2,2.2,2.4,2.9,3.5l0.1,0.2c0.1,0.1,0.2,0.3,0.2,0.4
			c0.2,0.4,0.5,0.8,0.9,1.2c0.6,0.5,1.3,0.8,2.1,0.8l0,0h0.1c1.3,0,2.2-0.9,2.8-2.4c0.3-0.8,0.7-1.7,1.1-2.5
			c0.4-0.7,0.9-1.5,1.4-2.3c1.7-2.5,3.8-5.6,5.5-9c2.2-3.4,3.7-7.8,4.4-12.6c0.4-2.7,0.5-5.6,0.2-8.4c0-0.1,0-0.2,0-0.3v-0.2V62
			c0-0.1,0-0.2,0-0.3c-0.3-2.8-0.9-5.6-1.8-8.3c-1.5-4.5-3.8-8.5-6.6-11.5c-2.3-2.9-5-5.6-7.1-7.8c-0.9-0.9-1.6-1.8-2.3-2.6
			c-0.4-0.5-0.7-1-1-1.5c0,0,0-0.1-0.1-0.1c-0.2-0.4-0.6-1.2-1.6-1.6C57.2,28,56.8,27.9,56.4,27.9L56.4,27.9L56.4,27.9z"/>
	</g>
</g>
<g>
	<polygon class="st0" points="53.8,57.7 67.3,69.7 64.5,72.5 52.5,59 	"/>
	<polygon class="st0" points="52.5,70.5 64.5,57 67.3,59.8 53.8,71.8 	"/>
</g>
</svg>
