<?xml version="1.0" encoding="utf-8"?>
<!-- Generator: Adobe Illustrator 27.2.0, SVG Export Plug-In . SVG Version: 6.00 Build 0)  -->
<svg version="1.1" id="Layer_1" xmlns="http://www.w3.org/2000/svg" xmlns:xlink="http://www.w3.org/1999/xlink" x="0px" y="0px"
	 viewBox="0 0 119.1 130.4" style="enable-background:new 0 0 119.1 130.4;" xml:space="preserve">
<style type="text/css">
	.st0{fill:#FFFFFF;}
	.st1{fill:#484A9F;}
</style>
<g id="Layer_1_00000008861924369114261730000007351939959288612233_">
	<g>
		<g>
			<circle class="st0" cx="59.5" cy="64.2" r="42.9"/>
			<path class="st1" d="M59.5,110.2c-25.4,0-46-20.6-46-46s20.6-46,46-46s46,20.6,46,46S84.9,110.2,59.5,110.2z M59.5,24.5
				c-21.9,0-39.8,17.8-39.8,39.8S37.6,104,59.5,104s39.8-17.8,39.8-39.8S81.5,24.5,59.5,24.5z"/>
		</g>
		<path class="st1" d="M73.2,52.5l-1.7,2.3c-2.5-1.9-6.1-1.9-8.6,0l-1.7-2.3C64.6,49.8,69.8,49.8,73.2,52.5 M70.6,62v-0.2l2.3-0.1
			V62c-0.7,8-6.3,14.1-13.1,14.3C53,76.5,47.1,70.6,46,62.7v-0.3l2.3-0.1v0.2c1.4,5.9,6,9.9,11.4,9.7C65.1,72.1,69.5,67.9,70.6,62
			 M57.2,52.9l-1.7,2.3c-2.5-1.9-6.1-1.9-8.6,0l-1.7-2.3C48.6,50.2,53.8,50.2,57.2,52.9 M74.7,41.2c-5.2-1.3-10.5-0.5-14.8,2
			c-1.7-1-3.6-1.8-5.6-2.4c-10.9-2.7-21.9,3.9-24.6,14.7c-2.2,8.6,1.5,17.3,8.6,21.9c-0.5,4.6,2.4,9,7.1,10.2
			c3.6,0.9,7.2-0.4,9.5-3.1c0.2-0.2,1.8-1.7,4.9-1.5c3.1,0.2,4.8,2.3,4.8,2.3c1.2,1.2,2.7,2.2,4.5,2.6c5,1.3,10.2-1.8,11.4-6.8
			c0.3-1.1,0.3-2.1,0.2-3.2c4.2-2.7,7.5-6.9,8.8-12.2C92.2,54.9,85.6,43.9,74.7,41.2"/>
	</g>
</g>
</svg>
