<?xml version="1.0" encoding="utf-8"?>
<!-- Generator: Adobe Illustrator 27.2.0, SVG Export Plug-In . SVG Version: 6.00 Build 0)  -->
<svg version="1.1" xmlns="http://www.w3.org/2000/svg" xmlns:xlink="http://www.w3.org/1999/xlink" x="0px" y="0px"
	 viewBox="0 0 119.1 130.4" style="enable-background:new 0 0 119.1 130.4;" xml:space="preserve">
<style type="text/css">
	.st0{display:none;}
	.st1{display:inline;}
	.st2{fill:#FFFFFF;}
	.st3{fill:#484A9F;}
	.st4{display:none;opacity:0.47;}
</style>
<g id="Layer_1" class="st0">
	<g class="st1">
		<g>
			<circle class="st2" cx="59.5" cy="64.2" r="42.9"/>
			<path class="st3" d="M59.5,110.2c-25.4,0-46-20.6-46-46s20.6-46,46-46s46,20.6,46,46S84.9,110.2,59.5,110.2z M59.5,24.5
				c-21.9,0-39.8,17.8-39.8,39.8S37.6,104,59.5,104s39.8-17.8,39.8-39.8S81.5,24.5,59.5,24.5z"/>
		</g>
		<path class="st3" d="M73.2,52.5l-1.7,2.3c-2.5-1.9-6.1-1.9-8.6,0l-1.7-2.3C64.6,49.8,69.8,49.8,73.2,52.5 M70.6,62l0-0.2l2.3-0.1
			l0,0.3c-0.7,8-6.3,14.1-13.1,14.3c-6.8,0.2-12.7-5.7-13.8-13.6l0-0.3l2.3-0.1l0,0.2c1.4,5.9,6,9.9,11.4,9.7
			C65.1,72.1,69.5,67.9,70.6,62 M57.2,52.9l-1.7,2.3c-2.5-1.9-6.1-1.9-8.6,0l-1.7-2.3C48.6,50.2,53.8,50.2,57.2,52.9 M74.7,41.2
			c-5.2-1.3-10.5-0.5-14.8,2c-1.7-1-3.6-1.8-5.6-2.4c-10.9-2.7-21.9,3.9-24.6,14.7c-2.2,8.6,1.5,17.3,8.6,21.9
			c-0.5,4.6,2.4,9,7.1,10.2c3.6,0.9,7.2-0.4,9.5-3.1c0.2-0.2,1.8-1.7,4.9-1.5c3.1,0.2,4.8,2.3,4.8,2.3c1.2,1.2,2.7,2.2,4.5,2.6
			c5,1.3,10.2-1.8,11.4-6.8c0.3-1.1,0.3-2.1,0.2-3.2c4.2-2.7,7.5-6.9,8.8-12.2C92.2,54.9,85.6,43.9,74.7,41.2"/>
	</g>
</g>
<g id="Layer_2" class="st0">
	<g class="st1">
		<g>
			<g>
				<circle class="st2" cx="59.5" cy="64.2" r="43"/>
				<path class="st3" d="M59.5,110.2c-25.4,0-46-20.6-46-46s20.6-46,46-46s46,20.6,46,46S84.9,110.2,59.5,110.2z M59.5,24.2
					c-22.1,0-40,17.9-40,40s17.9,40,40,40s40-17.9,40-40S81.6,24.2,59.5,24.2z"/>
			</g>
			<g>
				<path class="st3" d="M37.8,83.3l2.5,2.3c1.4,1.3,1.5,2.5,0.4,3.6c-1,1.1-2.2,1.1-3.6-0.2l-1-0.9l-1.3,1.4l-1.5-1.4
					C33.3,88.2,37.8,83.3,37.8,83.3z M38,88c0.5,0.5,0.9,0.5,1.2,0.1c0.3-0.4,0.3-0.7-0.2-1.2l-0.9-0.8l-1.1,1.1
					C37.1,87.2,38,88,38,88z"/>
				<path class="st3" d="M42.7,87.8l4.5,2.7l-0.9,1.5l-2.7-1.6l-0.5,0.8l2,1.2l-0.6,0.9l-2-1.2L42.1,93l2.8,1.6L44,96.1l-4.6-2.7
					L42.7,87.8L42.7,87.8z"/>
				<path class="st3" d="M47.9,90.7l3.3,1.1c2.1,0.7,2.5,1.6,2.1,2.8c-0.2,0.6-0.6,1.2-1.5,1.2l0,0c0.8,0.5,0.7,1.2,0.5,1.8
					l-0.4,1.3l-2-0.6l0.4-1.4c0.2-0.5,0.1-0.8-0.4-1l-1.3-0.4l-0.7,2.2l-2-0.6L47.9,90.7L47.9,90.7z M50.2,94.8c0.6,0.2,0.9,0,1-0.4
					c0.1-0.4,0-0.7-0.7-0.9l-1.2-0.4l-0.4,1.3C48.9,94.4,50.2,94.8,50.2,94.8z"/>
				<path class="st3" d="M57.1,93.1l3.4-0.1c2,0,2.8,0.7,2.8,2.3c0,1.5-0.8,2.3-2.7,2.3l-1.3,0l0,1.9l-2.1,0
					C57.2,99.7,57.1,93.1,57.1,93.1z M60.5,96.3c0.7,0,1-0.3,1-0.8c0-0.5-0.3-0.8-1-0.8l-1.2,0l0,1.6L60.5,96.3z"/>
				<path class="st3" d="M68.5,97.2l-2.6,0.6l-0.2,1.2l-2.1,0.5l1.2-7l2.6-0.6l4.2,5.8l-2.4,0.6C69.2,98.3,68.5,97.2,68.5,97.2z
					 M67.8,96.2l-1.4-2l0,0l-0.3,2.4L67.8,96.2z"/>
				<path class="st3" d="M70.8,94.5c-0.9-1.7-0.5-3.6,1.7-4.6c2.3-1.1,3.6-0.1,4.2,1c0,0,0.1,0.1,0.1,0.2l-1.6,0.8l0,0
					c-0.2-0.5-0.9-0.8-1.7-0.4c-0.9,0.4-1,1.3-0.6,2.1c0.4,0.8,1.1,1.3,2.1,0.8c0.8-0.4,1-1,0.7-1.6l0,0l1.6-0.8
					c0,0.1,0.1,0.1,0.1,0.1c0.6,1.2,0.5,2.8-1.7,3.9C73.1,97.1,71.6,96,70.8,94.5z"/>
				<path class="st3" d="M76,88.2l1.6-1.4l1.9,2.2l0,0l0.1-4l1.8-1.6l-0.2,3.9L86,88l-2.1,1.9L81,89.3l-0.1,1.1l1.1,1.2L80.4,93
					L76,88.2L76,88.2z"/>
			</g>
			<g>
				<path class="st3" d="M42.5,39.8c-1-2-0.6-4.2,2.2-5.6c2.8-1.3,4.8-0.3,5.8,1.7c1,2,0.7,4.3-2.2,5.7C45.6,42.9,43.6,42,42.5,39.8
					z M48.1,37.1c-0.5-1-1.4-1.5-2.5-1c-1.1,0.5-1.2,1.5-0.8,2.5c0.5,1.1,1.4,1.5,2.5,1C48.5,39.1,48.7,38.1,48.1,37.1L48.1,37.1z"
					/>
				<path class="st3" d="M52,31.5l3.5-0.4l3,3.8h0l-0.4-4l2.2-0.2l0.8,7.8l-2.9,0.3l-3.7-4.6l0,0l0.5,4.9l-2.2,0.2L52,31.5L52,31.5z
					"/>
				<path class="st3" d="M64.1,31.1l2.5,0.6l-1.3,5.5l3.4,0.8l-0.5,2.2l-5.9-1.4L64.1,31.1z"/>
				<path class="st3" d="M71.7,38.4l-0.8-5.8l2.8,1.5l0.3,3.1l0,0l2.7-1.4l2.3,1.2L74,39.6l-1.5,2.8l-2.3-1.2L71.7,38.4L71.7,38.4z"
					/>
			</g>
			<g>
				<path class="st3" d="M29.5,75c0-3.1,2.6-5.3,7.5-5.3c5.1,0,6.9,2.3,7,4.3c0,0.1,0,0.2,0,0.3h-3.3v-0.1c0-0.7-1-1.7-3.4-1.7
					c-2.6,0-3.8,1-3.8,2.4c0,1.3,1,2.4,3.8,2.4c2.4,0,3.4-0.8,3.4-1.6v-0.1h3.3c0,0.1,0,0.2,0,0.3c0,2.3-2,4.3-7,4.3
					C31.8,80.3,29.5,77.9,29.5,75L29.5,75z"/>
				<path class="st3" d="M56.4,78.4h-6.1l-1,1.8H45l6.3-10.2H56l6.3,10.2h-4.9C57.4,80.1,56.4,78.4,56.4,78.4z M55.3,76.4l-2-3.5h0
					l-2,3.5C51.4,76.4,55.3,76.4,55.3,76.4z"/>
				<path class="st3" d="M63.5,69.9h3.8v7h7.1v3.2H63.5C63.5,80.1,63.5,69.9,63.5,69.9z"/>
				<path class="st3" d="M75.5,76.7h3.3c0,0.7,0.6,1.2,3.4,1.2c2.9,0,3.4-0.4,3.4-0.9c0-0.3-0.2-0.5-0.9-0.6
					c-0.7-0.1-2.3-0.2-3.7-0.2c-1.3-0.1-3.3-0.2-4.2-0.6c-0.9-0.4-1.4-1-1.4-2.1c0-1.9,2-3.6,7-3.6c5.7,0,6.6,1.9,6.6,3.6h-3.3
					c0-0.6-0.8-1.1-3.2-1.1c-2.3,0-3.2,0.4-3.2,0.9c0,0.3,0.2,0.5,0.7,0.6c0.5,0.1,2.2,0.2,3.6,0.3c1.6,0.1,3.2,0.2,4.4,0.5
					c1.1,0.4,1.6,1.1,1.6,2.2c0,1.5-0.8,3.8-7.1,3.8C75.9,80.3,75.5,77.8,75.5,76.7L75.5,76.7z"/>
			</g>
		</g>
		<g>
			<path class="st3" d="M51.3,52.4L51.3,52.4l-13.2,0V47h20.3V52c-5.6,3.2-8.3,7.7-8.9,13.4h-8.4C41.9,59.1,46,55,51.3,52.4
				L51.3,52.4z"/>
			<path class="st3" d="M60.8,60.2c0-0.3,0-0.5,0.1-0.7h5.9v0.2c0,0.9,1,1.5,3.8,1.5c2.5,0,3.3-0.8,3.3-2c0-1.1-0.9-1.9-3.4-1.9
				c-2.2,0-2.9,0.6-3.2,1l-6-0.5l1-10.8h16.9V52H67.7L67.3,56l0.1,0c0.8-1.3,2.5-2.1,6.1-2.1c5.6,0,7.4,2.5,7.4,5.4
				c0,3.4-2.4,6.3-9.7,6.3C62.3,65.7,60.8,62.8,60.8,60.2L60.8,60.2z"/>
		</g>
	</g>
</g>
<g id="Layer_7" class="st0">
	<g class="st1">
		<g>
			<g>
				<circle class="st2" cx="59.5" cy="64.2" r="43"/>
				<path class="st3" d="M59.5,110.2c-25.4,0-46-20.6-46-46s20.6-46,46-46s46,20.6,46,46S84.9,110.2,59.5,110.2z M59.5,24.2
					c-22.1,0-40,17.9-40,40s17.9,40,40,40s40-17.9,40-40S81.6,24.2,59.5,24.2z"/>
			</g>
			<g>
				<path class="st3" d="M37.8,83.3l2.5,2.3c1.4,1.3,1.5,2.5,0.4,3.6c-1,1.1-2.2,1.1-3.6-0.2l-1-0.9l-1.3,1.4l-1.5-1.4
					C33.3,88.2,37.8,83.3,37.8,83.3z M38,88c0.5,0.5,0.9,0.5,1.2,0.1c0.3-0.4,0.3-0.7-0.2-1.2l-0.9-0.8l-1.1,1.1
					C37.1,87.2,38,88,38,88z"/>
				<path class="st3" d="M42.7,87.8l4.5,2.7l-0.9,1.5l-2.7-1.6l-0.5,0.8l2,1.2l-0.6,0.9l-2-1.2L42.1,93l2.8,1.6L44,96.1l-4.6-2.7
					L42.7,87.8L42.7,87.8z"/>
				<path class="st3" d="M47.9,90.7l3.3,1.1c2.1,0.7,2.5,1.6,2.1,2.8c-0.2,0.6-0.6,1.2-1.5,1.2l0,0c0.8,0.5,0.7,1.2,0.5,1.8
					l-0.4,1.3l-2-0.6l0.4-1.4c0.2-0.5,0.1-0.8-0.4-1l-1.3-0.4l-0.7,2.2l-2-0.6L47.9,90.7L47.9,90.7z M50.2,94.8c0.6,0.2,0.9,0,1-0.4
					c0.1-0.4,0-0.7-0.7-0.9l-1.2-0.4l-0.4,1.3C48.9,94.4,50.2,94.8,50.2,94.8z"/>
				<path class="st3" d="M57.1,93.1l3.4-0.1c2,0,2.8,0.7,2.8,2.3c0,1.5-0.8,2.3-2.7,2.3l-1.3,0l0,1.9l-2.1,0
					C57.2,99.7,57.1,93.1,57.1,93.1z M60.5,96.3c0.7,0,1-0.3,1-0.8c0-0.5-0.3-0.8-1-0.8l-1.2,0l0,1.6L60.5,96.3z"/>
				<path class="st3" d="M68.5,97.2l-2.6,0.6l-0.2,1.2l-2.1,0.5l1.2-7l2.6-0.6l4.2,5.8l-2.4,0.6C69.2,98.3,68.5,97.2,68.5,97.2z
					 M67.8,96.2l-1.4-2l0,0l-0.3,2.4L67.8,96.2z"/>
				<path class="st3" d="M70.8,94.5c-0.9-1.7-0.5-3.6,1.7-4.6c2.3-1.1,3.6-0.1,4.2,1c0,0,0.1,0.1,0.1,0.2l-1.6,0.8l0,0
					c-0.2-0.5-0.9-0.8-1.7-0.4c-0.9,0.4-1,1.3-0.6,2.1c0.4,0.8,1.1,1.3,2.1,0.8c0.8-0.4,1-1,0.7-1.6l0,0l1.6-0.8
					c0,0.1,0.1,0.1,0.1,0.1c0.6,1.2,0.5,2.8-1.7,3.9C73.1,97.1,71.6,96,70.8,94.5z"/>
				<path class="st3" d="M76,88.2l1.6-1.4l1.9,2.2l0,0l0.1-4l1.8-1.6l-0.2,3.9L86,88l-2.1,1.9L81,89.3l-0.1,1.1l1.1,1.2L80.4,93
					L76,88.2L76,88.2z"/>
			</g>
			<g>
				<path class="st3" d="M42.5,39.8c-1-2-0.6-4.2,2.2-5.6c2.8-1.3,4.8-0.3,5.8,1.7c1,2,0.7,4.3-2.2,5.7C45.6,42.9,43.6,42,42.5,39.8
					z M48.1,37.1c-0.5-1-1.4-1.5-2.5-1c-1.1,0.5-1.2,1.5-0.8,2.5c0.5,1.1,1.4,1.5,2.5,1C48.5,39.1,48.7,38.1,48.1,37.1L48.1,37.1z"
					/>
				<path class="st3" d="M52,31.5l3.5-0.4l3,3.8h0l-0.4-4l2.2-0.2l0.8,7.8l-2.9,0.3l-3.7-4.6l0,0l0.5,4.9l-2.2,0.2L52,31.5L52,31.5z
					"/>
				<path class="st3" d="M64.1,31.1l2.5,0.6l-1.3,5.5l3.4,0.8l-0.5,2.2l-5.9-1.4L64.1,31.1z"/>
				<path class="st3" d="M71.7,38.4l-0.8-5.8l2.8,1.5l0.3,3.1l0,0l2.7-1.4l2.3,1.2L74,39.6l-1.5,2.8l-2.3-1.2L71.7,38.4L71.7,38.4z"
					/>
			</g>
			<g>
				<path class="st3" d="M29.5,75c0-3.1,2.6-5.3,7.5-5.3c5.1,0,6.9,2.3,7,4.3c0,0.1,0,0.2,0,0.3h-3.3v-0.1c0-0.7-1-1.7-3.4-1.7
					c-2.6,0-3.8,1-3.8,2.4c0,1.3,1,2.4,3.8,2.4c2.4,0,3.4-0.8,3.4-1.6v-0.1h3.3c0,0.1,0,0.2,0,0.3c0,2.3-2,4.3-7,4.3
					C31.8,80.3,29.5,77.9,29.5,75L29.5,75z"/>
				<path class="st3" d="M56.4,78.4h-6.1l-1,1.8H45l6.3-10.2H56l6.3,10.2h-4.9C57.4,80.1,56.4,78.4,56.4,78.4z M55.3,76.4l-2-3.5h0
					l-2,3.5C51.4,76.4,55.3,76.4,55.3,76.4z"/>
				<path class="st3" d="M63.5,69.9h3.8v7h7.1v3.2H63.5C63.5,80.1,63.5,69.9,63.5,69.9z"/>
				<path class="st3" d="M75.5,76.7h3.3c0,0.7,0.6,1.2,3.4,1.2c2.9,0,3.4-0.4,3.4-0.9c0-0.3-0.2-0.5-0.9-0.6
					c-0.7-0.1-2.3-0.2-3.7-0.2c-1.3-0.1-3.3-0.2-4.2-0.6c-0.9-0.4-1.4-1-1.4-2.1c0-1.9,2-3.6,7-3.6c5.7,0,6.6,1.9,6.6,3.6h-3.3
					c0-0.6-0.8-1.1-3.2-1.1c-2.3,0-3.2,0.4-3.2,0.9c0,0.3,0.2,0.5,0.7,0.6c0.5,0.1,2.2,0.2,3.6,0.3c1.6,0.1,3.2,0.2,4.4,0.5
					c1.1,0.4,1.6,1.1,1.6,2.2c0,1.5-0.8,3.8-7.1,3.8C75.9,80.3,75.5,77.8,75.5,76.7L75.5,76.7z"/>
			</g>
		</g>
		<g>
			<path class="st3" d="M27.6,60.5h6.8v-5.4h-4.6v-3.9l2.8-0.1c2.5-0.1,3.3-0.9,3.5-4h5.3v13.5h5.4v4.9H27.6
				C27.6,65.4,27.6,60.5,27.6,60.5z"/>
			<path class="st3" d="M49.1,59.5c0-0.6,0.1-1.3,0.2-1.6H55c0,0.2-0.1,0.4-0.1,0.6c0,1.4,1.1,2.3,4,2.3c3.4,0,4-1.1,4-2
				c0-0.7-0.6-1.1-2.3-1.1h-3v-3h2.6c1.6,0,2.3-0.4,2.3-1.4s-1-1.7-3.5-1.7c-2.8,0-3.7,1-3.7,2.3c0,0.2,0,0.5,0.1,0.6H50
				c-0.1-0.3-0.3-0.9-0.3-1.7c0-2.8,2.2-6,9.9-6c6.6,0,9.2,2.3,9.2,5.2c0,1.7-1,2.9-2.9,3.4v0.1c2.8,0.5,4.1,2.1,4.1,4.1
				c0,3.5-2.8,6.2-10.8,6.2C50.9,65.7,49.1,62.3,49.1,59.5L49.1,59.5z"/>
			<path class="st3" d="M71.5,56.2c0-5.6,3.4-9.4,10.4-9.4c7,0,10.5,3.8,10.5,9.4c0,5.3-3,9.6-10.5,9.6
				C74.5,65.7,71.5,61.5,71.5,56.2z M85.4,56.2c0-3-1.2-4.5-3.5-4.5c-2.2,0-3.4,1.5-3.4,4.5c0,3,1.1,4.6,3.4,4.6
				C84.3,60.8,85.4,59.2,85.4,56.2z"/>
		</g>
	</g>
</g>
<g id="Layer_12">
	<g>
		<g>
			<g>
				<circle class="st2" cx="59.5" cy="64.2" r="43"/>
				<path class="st3" d="M59.5,110.2c-25.4,0-46-20.6-46-46s20.6-46,46-46s46,20.6,46,46S84.9,110.2,59.5,110.2z M59.5,24.2
					c-22.1,0-40,17.9-40,40s17.9,40,40,40s40-17.9,40-40S81.6,24.2,59.5,24.2z"/>
			</g>
			<g>
				<path class="st3" d="M37.8,83.3l2.5,2.3c1.4,1.3,1.5,2.5,0.4,3.6c-1,1.1-2.2,1.1-3.6-0.2l-1-0.9l-1.3,1.4l-1.5-1.4
					C33.3,88.2,37.8,83.3,37.8,83.3z M38,88c0.5,0.5,0.9,0.5,1.2,0.1c0.3-0.4,0.3-0.7-0.2-1.2l-0.9-0.8l-1.1,1.1
					C37.1,87.2,38,88,38,88z"/>
				<path class="st3" d="M42.7,87.8l4.5,2.7l-0.9,1.5l-2.7-1.6l-0.5,0.8l2,1.2l-0.6,0.9l-2-1.2L42.1,93l2.8,1.6L44,96.1l-4.6-2.7
					L42.7,87.8L42.7,87.8z"/>
				<path class="st3" d="M47.9,90.7l3.3,1.1c2.1,0.7,2.5,1.6,2.1,2.8c-0.2,0.6-0.6,1.2-1.5,1.2l0,0c0.8,0.5,0.7,1.2,0.5,1.8
					l-0.4,1.3l-2-0.6l0.4-1.4c0.2-0.5,0.1-0.8-0.4-1l-1.3-0.4l-0.7,2.2l-2-0.6L47.9,90.7L47.9,90.7z M50.2,94.8c0.6,0.2,0.9,0,1-0.4
					c0.1-0.4,0-0.7-0.7-0.9l-1.2-0.4l-0.4,1.3C48.9,94.4,50.2,94.8,50.2,94.8z"/>
				<path class="st3" d="M57.1,93.1l3.4-0.1c2,0,2.8,0.7,2.8,2.3c0,1.5-0.8,2.3-2.7,2.3l-1.3,0l0,1.9l-2.1,0
					C57.2,99.7,57.1,93.1,57.1,93.1z M60.5,96.3c0.7,0,1-0.3,1-0.8c0-0.5-0.3-0.8-1-0.8l-1.2,0l0,1.6L60.5,96.3z"/>
				<path class="st3" d="M68.5,97.2l-2.6,0.6l-0.2,1.2l-2.1,0.5l1.2-7l2.6-0.6l4.2,5.8l-2.4,0.6C69.2,98.3,68.5,97.2,68.5,97.2z
					 M67.8,96.2l-1.4-2l0,0l-0.3,2.4L67.8,96.2z"/>
				<path class="st3" d="M70.8,94.5c-0.9-1.7-0.5-3.6,1.7-4.6c2.3-1.1,3.6-0.1,4.2,1c0,0,0.1,0.1,0.1,0.2l-1.6,0.8l0,0
					c-0.2-0.5-0.9-0.8-1.7-0.4c-0.9,0.4-1,1.3-0.6,2.1c0.4,0.8,1.1,1.3,2.1,0.8c0.8-0.4,1-1,0.7-1.6l0,0l1.6-0.8
					c0,0.1,0.1,0.1,0.1,0.1c0.6,1.2,0.5,2.8-1.7,3.9C73.1,97.1,71.6,96,70.8,94.5z"/>
				<path class="st3" d="M76,88.2l1.6-1.4l1.9,2.2l0,0l0.1-4l1.8-1.6l-0.2,3.9L86,88l-2.1,1.9L81,89.3l-0.1,1.1l1.1,1.2L80.4,93
					L76,88.2L76,88.2z"/>
			</g>
			<g>
				<path class="st3" d="M42.5,39.8c-1-2-0.6-4.2,2.2-5.6c2.8-1.3,4.8-0.3,5.8,1.7c1,2,0.7,4.3-2.2,5.7C45.6,42.9,43.6,42,42.5,39.8
					z M48.1,37.1c-0.5-1-1.4-1.5-2.5-1c-1.1,0.5-1.2,1.5-0.8,2.5c0.5,1.1,1.4,1.5,2.5,1C48.5,39.1,48.7,38.1,48.1,37.1L48.1,37.1z"
					/>
				<path class="st3" d="M52,31.5l3.5-0.4l3,3.8h0l-0.4-4l2.2-0.2l0.8,7.8l-2.9,0.3l-3.7-4.6l0,0l0.5,4.9l-2.2,0.2L52,31.5L52,31.5z
					"/>
				<path class="st3" d="M64.1,31.1l2.5,0.6l-1.3,5.5l3.4,0.8l-0.5,2.2l-5.9-1.4L64.1,31.1z"/>
				<path class="st3" d="M71.7,38.4l-0.8-5.8l2.8,1.5l0.3,3.1l0,0l2.7-1.4l2.3,1.2L74,39.6l-1.5,2.8l-2.3-1.2L71.7,38.4L71.7,38.4z"
					/>
			</g>
			<g>
				<path class="st3" d="M29.5,75c0-3.1,2.6-5.3,7.5-5.3c5.1,0,6.9,2.3,7,4.3c0,0.1,0,0.2,0,0.3h-3.3v-0.1c0-0.7-1-1.7-3.4-1.7
					c-2.6,0-3.8,1-3.8,2.4c0,1.3,1,2.4,3.8,2.4c2.4,0,3.4-0.8,3.4-1.6v-0.1h3.3c0,0.1,0,0.2,0,0.3c0,2.3-2,4.3-7,4.3
					C31.8,80.3,29.5,77.9,29.5,75L29.5,75z"/>
				<path class="st3" d="M56.4,78.4h-6.1l-1,1.8H45l6.3-10.2H56l6.3,10.2h-4.9C57.4,80.1,56.4,78.4,56.4,78.4z M55.3,76.4l-2-3.5h0
					l-2,3.5C51.4,76.4,55.3,76.4,55.3,76.4z"/>
				<path class="st3" d="M63.5,69.9h3.8v7h7.1v3.2H63.5C63.5,80.1,63.5,69.9,63.5,69.9z"/>
				<path class="st3" d="M75.5,76.7h3.3c0,0.7,0.6,1.2,3.4,1.2c2.9,0,3.4-0.4,3.4-0.9c0-0.3-0.2-0.5-0.9-0.6
					c-0.7-0.1-2.3-0.2-3.7-0.2c-1.3-0.1-3.3-0.2-4.2-0.6c-0.9-0.4-1.4-1-1.4-2.1c0-1.9,2-3.6,7-3.6c5.7,0,6.6,1.9,6.6,3.6h-3.3
					c0-0.6-0.8-1.1-3.2-1.1c-2.3,0-3.2,0.4-3.2,0.9c0,0.3,0.2,0.5,0.7,0.6c0.5,0.1,2.2,0.2,3.6,0.3c1.6,0.1,3.2,0.2,4.4,0.5
					c1.1,0.4,1.6,1.1,1.6,2.2c0,1.5-0.8,3.8-7.1,3.8C75.9,80.3,75.5,77.8,75.5,76.7L75.5,76.7z"/>
			</g>
		</g>
		<g>
			<path class="st3" d="M27.6,60.5h6.8v-5.4h-4.6v-3.9l2.8-0.1c2.5-0.1,3.3-0.9,3.5-4h5.3v13.5h5.4v4.9H27.6
				C27.6,65.4,27.6,60.5,27.6,60.5z"/>
			<path class="st3" d="M56.3,56.7c4.6-1.4,5.3-1.9,5.3-3.4c0-1.1-0.9-1.9-2.6-1.9c-2.2,0-3.4,0.9-3.4,2.7c0,0.4,0.1,0.8,0.1,1.1H50
				c-0.1-0.3-0.1-1-0.1-1.6c0-3.7,2.7-6.8,9.6-6.8c6.9,0,9.1,3.1,9.1,6.2c0,3-2,4.6-7.3,6.1c-2.8,0.8-2.8,1-2.8,1.4h10.8v4.9H49.7
				C49.7,60.6,50.3,58.6,56.3,56.7L56.3,56.7z"/>
			<path class="st3" d="M71.5,56.2c0-5.6,3.4-9.4,10.4-9.4c7,0,10.5,3.8,10.5,9.4c0,5.3-3,9.6-10.5,9.6
				C74.5,65.7,71.5,61.5,71.5,56.2z M85.4,56.2c0-3-1.2-4.5-3.5-4.5c-2.2,0-3.4,1.5-3.4,4.5c0,3,1.1,4.6,3.4,4.6
				C84.3,60.8,85.4,59.2,85.4,56.2z"/>
		</g>
	</g>
</g>
<g id="Layer_9" class="st4">
	<g class="st1">
		<g>
			<g>
				<g>
					<circle class="st2" cx="59.5" cy="64.2" r="42.9"/>
					<path class="st3" d="M59.5,110.2c-25.3,0-46-20.6-46-46s20.6-46,46-46s46,20.6,46,46S84.9,110.2,59.5,110.2z M59.5,24.5
						c-21.9,0-39.7,17.8-39.7,39.7s17.8,39.7,39.7,39.7s39.7-17.8,39.7-39.7S81.4,24.5,59.5,24.5z"/>
				</g>
				<g>
					<path class="st3" d="M21.3,103.2l3.4,2.8l-2,6.9l0,0l4.1-5.2l2.1,1.7l-7.3,9l-3.1-2.5l2.4-8.1l0,0l-4.9,6.1l-2.1-1.7
						L21.3,103.2L21.3,103.2z"/>
					<path class="st3" d="M27.1,115.1c1.7-3.3,4.6-4.3,7.5-2.8c2.9,1.5,3.7,4.5,2.1,7.7c-1.7,3.3-4.6,4.4-7.6,2.9
						C26.2,121.4,25.3,118.5,27.1,115.1z M33.7,118.5c0.9-1.8,0.6-3.1-0.4-3.7c-1-0.5-2.3,0-3.3,1.8c-1,1.9-0.6,3.2,0.4,3.7
						C31.4,120.9,32.7,120.4,33.7,118.5z"/>
					<path class="st3" d="M41.9,123.8l2.7,0.6c-0.2,1,0,1.7,1.2,2c1.2,0.3,1.6-0.2,1.7-0.8c0.1-0.4,0-0.7-0.3-1
						c-0.3-0.2-1.2-0.5-1.8-0.8c-0.8-0.3-1.7-0.8-2.2-1.3c-0.5-0.6-0.7-1.5-0.4-2.6c0.5-2.2,2.3-3.4,5.2-2.8
						c3.3,0.7,3.9,2.4,3.4,4.9l-2.6-0.6c0.2-1.1-0.1-1.7-1.1-1.9c-1-0.2-1.5,0.1-1.6,0.7c-0.1,0.4,0,0.7,0.2,1
						c0.3,0.2,1.1,0.6,1.9,0.9c1,0.4,1.7,0.8,2.2,1.3c0.6,0.6,0.8,1.5,0.5,2.6c-0.4,2-1.8,3.6-5.4,2.8
						C41.8,128,41.4,125.9,41.9,123.8z"/>
					<path class="st3" d="M55.5,121.4l-2.5-0.1l0.1-3l8.2,0.4l-0.1,3l-2.5-0.1l-0.4,8.6l-3.2-0.1C55.1,130.1,55.5,121.4,55.5,121.4z
						"/>
					<path class="st3" d="M62.7,124.5c-0.5-3.6,1.3-6.2,4.5-6.6c3.2-0.5,5.7,1.5,6.2,5.1c0.5,3.7-1.2,6.3-4.5,6.7
						C65.6,130.2,63.2,128.3,62.7,124.5L62.7,124.5z M70.1,123.5c-0.3-2-1.3-2.9-2.5-2.7c-1.2,0.2-1.9,1.3-1.6,3.3
						c0.3,2.1,1.3,3,2.5,2.8C69.6,126.7,70.4,125.6,70.1,123.5z"/>
					<path class="st3" d="M73.3,117l4.2-1.5l4.9,5.3l0,0l-2.3-6.2l2.6-0.9l3.9,10.9l-3.7,1.3l-5.7-6.2l0,0l2.8,7.3l-2.6,0.9
						L73.3,117L73.3,117z"/>
					<path class="st3" d="M83.7,113.1l6.2-3.6l1.4,2.5l-3.5,2l1,1.7l2.6-1.5l0.9,1.6l-2.6,1.5l1,1.8l3.6-2.1l1.4,2.5l-6.3,3.7
						L83.7,113.1z"/>
					<path class="st3" d="M95.5,115l2.2-1.8c0.7,0.8,1.4,1.1,2.3,0.3c0.9-0.8,0.8-1.4,0.4-1.8c-0.3-0.3-0.6-0.5-1-0.3
						c-0.4,0.1-1.1,0.6-1.8,0.9c-0.8,0.4-1.7,0.9-2.4,0.9c-0.8,0-1.6-0.4-2.3-1.3c-1.4-1.8-1.3-3.9,1-5.8c2.6-2.1,4.3-1.6,5.9,0.4
						l-2.1,1.7c-0.7-0.8-1.4-1-2.2-0.3c-0.8,0.6-0.8,1.3-0.4,1.7c0.3,0.4,0.6,0.5,0.9,0.4c0.3-0.1,1.1-0.5,1.9-0.9
						c1-0.5,1.7-0.9,2.4-1c0.9-0.1,1.7,0.3,2.4,1.2c1.3,1.6,1.7,3.6-1.1,6C98.8,117.6,96.9,116.6,95.5,115L95.5,115z"/>
				</g>
				<path class="st3" d="M59.5,110.2c-25.3,0-46-20.6-46-46s20.6-46,46-46s46,20.6,46,46S84.9,110.2,59.5,110.2z M59.5,24.5
					c-21.9,0-39.7,17.8-39.7,39.7s17.8,39.7,39.7,39.7s39.7-17.8,39.7-39.7S81.4,24.5,59.5,24.5z"/>
			</g>
			<g>
				<path class="st3" d="M91.7,72.7c0-0.1,0.1-0.2,0.1-0.3c0-0.1,0.1-0.2,0.1-0.3c0.6-1.7,0.9-3.4,1.1-5.1c0.3-3,0-5.8-0.8-8.1
					c-0.6-2.3-1.4-4.4-2.1-6.4c-0.3-0.8-0.5-1.6-0.7-2.4c-0.1-0.4-0.1-1.5-0.5-1.8c-0.1-0.1-0.3-0.1-0.5-0.1c-0.6,0-1.1,0.7-1.5,1.1
					c-0.6,0.5-1.3,1-2,1.4c-1.9,1.1-3.8,2.4-5.6,3.8c-2.1,1.3-4,3.4-5.6,5.9c-0.9,1.4-1.7,2.9-2.3,4.7c0,0.1-0.1,0.2-0.1,0.3
					c0,0.1-0.1,0.2-0.1,0.3c-0.6,1.7-0.9,3.4-1.1,5.1c-0.3,3,0,5.8,0.8,8.1c0.6,2.3,1.4,4.4,2.1,6.4c0.2,0.6,0.4,1.2,0.6,1.8
					c0.1,0.5,0.2,1.1,0.3,1.6c0.1,0.2,0.2,0.4,0.3,0.5c0.1,0.1,0.3,0.1,0.5,0.1c0.7,0,1-0.5,1.6-0.9c0.6-0.5,1.2-0.9,1.9-1.4
					c1.9-1.1,3.8-2.4,5.6-3.8c2.1-1.3,4-3.4,5.6-5.9C90.3,75.9,91.1,74.4,91.7,72.7z"/>
				<path class="st2" d="M74.8,89.6C74.8,89.6,74.7,89.6,74.8,89.6c-0.3,0-0.5-0.1-0.7-0.2c-0.2-0.1-0.4-0.4-0.5-0.6
					c-0.1-0.3-0.2-0.7-0.2-1c0-0.2-0.1-0.5-0.1-0.7c-0.1-0.6-0.3-1.2-0.6-1.8c-0.7-1.8-1.5-4.1-2.1-6.5c-0.8-2.4-1.1-5.2-0.8-8.2
					c0.1-1.7,0.5-3.5,1.1-5.1l0.2-0.5c0.6-1.7,1.4-3.3,2.3-4.7c1.6-2.6,3.6-4.6,5.7-6c1.9-1.5,4-2.7,5.6-3.8c0.7-0.5,1.4-0.9,2-1.4
					c0.1-0.1,0.2-0.2,0.3-0.3c0.4-0.4,0.8-0.8,1.4-0.8c0.2,0,0.5,0,0.7,0.1c0.4,0.3,0.5,1,0.6,1.6c0,0.2,0,0.3,0.1,0.4
					c0.2,0.8,0.4,1.5,0.7,2.4c0.7,1.8,1.5,4.1,2.1,6.5c0.8,2.4,1.1,5.2,0.8,8.2c-0.1,1.7-0.5,3.5-1.1,5.1L92,72.8
					c-0.6,1.7-1.3,3.2-2.3,4.7c-1.6,2.6-3.6,4.6-5.7,6c-1.9,1.5-4,2.7-5.6,3.8c-0.7,0.4-1.3,0.9-1.9,1.3c-0.1,0.1-0.2,0.2-0.3,0.3
					C75.8,89.2,75.4,89.6,74.8,89.6L74.8,89.6z M88.5,48.6C88.4,48.6,88.4,48.6,88.5,48.6c-0.4,0-0.7,0.3-1,0.6
					c-0.1,0.1-0.3,0.3-0.4,0.4c-0.6,0.5-1.3,1-2,1.5c-1.7,1-3.7,2.3-5.6,3.8c-2.1,1.3-4,3.3-5.5,5.8c-0.9,1.4-1.7,2.9-2.2,4.6
					l-0.2,0.5c-0.6,1.6-0.9,3.3-1,5c-0.3,2.9,0,5.7,0.8,8c0.6,2.3,1.4,4.6,2.1,6.4c0.2,0.6,0.4,1.2,0.6,1.8c0.1,0.2,0.1,0.5,0.1,0.7
					c0.1,0.3,0.1,0.6,0.2,0.9c0,0.1,0.1,0.2,0.2,0.3c0.1,0,0.2,0.1,0.3,0.1c0.4,0,0.6-0.2,1-0.5c0.1-0.1,0.2-0.2,0.4-0.3
					c0.6-0.5,1.2-0.9,2-1.4c1.7-1,3.7-2.3,5.6-3.8c2.1-1.3,4-3.3,5.5-5.8c0.9-1.4,1.7-2.9,2.2-4.6v0l0.2-0.5c0.6-1.6,0.9-3.3,1-5
					c0.3-2.9,0-5.7-0.8-8c-0.6-2.3-1.4-4.6-2.1-6.4c-0.3-0.9-0.6-1.7-0.7-2.5c0-0.1,0-0.3-0.1-0.5c0-0.3-0.1-1-0.2-1.1
					C88.7,48.6,88.6,48.6,88.5,48.6L88.5,48.6z"/>
			</g>
			<g>
				<path class="st3" d="M48.8,67.2c0-0.1-0.1-0.2-0.1-0.3c0-0.1-0.1-0.2-0.1-0.3c-0.5-1.8-1.3-3.3-2.1-4.7
					c-1.5-2.6-3.4-4.7-5.4-6.1c-1.8-1.5-3.7-2.8-5.5-4c-0.7-0.5-1.4-1-2-1.6c-0.5-0.4-1.3-1.5-2-0.8c-0.4,0.5-0.4,1.3-0.5,1.9
					c-0.2,0.7-0.4,1.4-0.7,2.1c-0.8,2-1.7,4.1-2.3,6.4C27.1,62.2,26.8,65,27,68c0.1,1.6,0.4,3.3,0.9,5.1c0,0.1,0.1,0.2,0.1,0.3
					c0,0.1,0.1,0.2,0.1,0.3c0.5,1.8,1.3,3.3,2.1,4.7c1.5,2.6,3.4,4.7,5.4,6.1c1.8,1.5,3.7,2.8,5.5,4c0.6,0.4,1.1,0.8,1.6,1.2
					c0.4,0.4,0.8,0.9,1.4,1.1c0.3,0.1,0.7,0.1,0.9-0.1c0.1-0.2,0.2-0.4,0.3-0.6c0.3-1.1,0.6-2.2,1-3.3c0.8-2,1.7-4.1,2.3-6.4
					c0.9-2.3,1.3-5.1,1.1-8.1C49.6,70.7,49.4,69,48.8,67.2z"/>
				<path class="st2" d="M44.5,91.2c-0.2,0-0.4,0-0.5-0.1c-0.4-0.2-0.8-0.5-1.1-0.8c-0.1-0.1-0.3-0.3-0.4-0.4
					c-0.5-0.4-1-0.8-1.6-1.2c-1.6-1.1-3.7-2.4-5.5-4c-2.1-1.4-4-3.6-5.5-6.2c-0.9-1.5-1.6-3.1-2.2-4.8l-0.2-0.6
					c-0.5-1.7-0.8-3.4-0.9-5.2c-0.2-3,0.2-5.9,1.1-8.2c0.7-2.3,1.6-4.6,2.3-6.4c0.3-0.7,0.5-1.4,0.7-2.1c0-0.2,0.1-0.4,0.1-0.6
					c0.1-0.5,0.1-1,0.5-1.4c0.2-0.2,0.5-0.3,0.7-0.3h0c0.6,0,1.1,0.5,1.5,0.9c0.1,0.1,0.2,0.2,0.2,0.2c0.6,0.5,1.2,1,2,1.5
					c1.7,1.1,3.7,2.5,5.5,4c2.1,1.4,4,3.6,5.5,6.2c0.9,1.5,1.6,3.1,2.2,4.8l0.2,0.6c0.5,1.7,0.8,3.4,0.9,5.2c0.2,3-0.2,5.9-1.1,8.2
					c-0.7,2.3-1.5,4.5-2.3,6.4c-0.4,1.1-0.7,2.2-1,3.2c-0.1,0.2-0.1,0.5-0.3,0.7C45.1,91.1,44.8,91.2,44.5,91.2L44.5,91.2z
					 M32.1,49.7c-0.1,0-0.1,0-0.3,0.1c-0.2,0.2-0.3,0.7-0.3,1.1c0,0.2-0.1,0.4-0.1,0.6c-0.2,0.7-0.4,1.4-0.7,2.2
					c-0.7,1.8-1.6,4.1-2.3,6.3c-0.9,2.3-1.3,5-1,8c0.1,1.7,0.4,3.4,0.9,5l0.2,0.6c0.5,1.6,1.2,3.2,2.1,4.6c1.5,2.5,3.3,4.6,5.3,6
					c1.9,1.5,3.9,2.9,5.5,4c0.6,0.4,1.1,0.8,1.6,1.2c0.1,0.1,0.3,0.3,0.4,0.4c0.3,0.3,0.5,0.5,0.9,0.7c0.2,0.1,0.4,0.1,0.6-0.1
					c0.1-0.1,0.1-0.3,0.2-0.4c0.3-1.1,0.6-2.2,1.1-3.3c0.8-1.9,1.6-4.1,2.3-6.3c0.9-2.3,1.3-5,1-8c-0.1-1.7-0.4-3.4-0.9-5l-0.2-0.6
					c-0.5-1.6-1.2-3.2-2.1-4.6c-1.5-2.5-3.3-4.6-5.3-6c-1.8-1.5-3.8-2.8-5.5-4c-0.8-0.5-1.5-1-2.1-1.6c-0.1-0.1-0.2-0.1-0.2-0.2
					C32.8,50.1,32.4,49.7,32.1,49.7L32.1,49.7z"/>
			</g>
			<g>
				<path class="st3" d="M62.7,98.7c-0.5,0-1-0.2-1.4-0.6c-0.3-0.3-0.5-0.6-0.7-0.9c-0.1-0.2-0.2-0.3-0.3-0.5l-0.1-0.1
					c-0.8-1.2-1.8-2.4-3.1-3.7c-2.2-2.3-4.8-4.8-7.1-7.8c-2.7-2.8-4.9-6.7-6.4-11.2c-0.9-2.5-1.5-5.2-1.8-8l0-0.5l0-0.4
					c-0.3-2.8-0.2-5.5,0.2-8.2c0.6-4.7,2.1-8.9,4.3-12.2c1.7-3.2,3.8-6.3,5.5-8.9c1-1.5,1.8-2.9,2.3-4.3c0.1-0.2,0.1-0.3,0.2-0.5
					c0.1-0.4,0.3-0.9,0.6-1.4c0.1-0.1,0.3-0.3,0.5-0.5c0.2-0.1,0.5-0.2,0.8-0.2h0c0.4,0,0.6,0,0.9,0.1c0.6,0.3,0.9,0.8,1.1,1.2
					l0.1,0.2c0.3,0.5,0.7,1.1,1.1,1.6c0.7,0.9,1.5,1.8,2.4,2.8c2.1,2.2,4.8,4.8,7.1,7.8c2.7,2.8,4.9,6.7,6.4,11.2
					c0.9,2.5,1.5,5.2,1.8,8l0,0.5l0,0.4c0.3,2.7,0.2,5.5-0.2,8.2c-0.6,4.7-2.1,8.9-4.3,12.2c-1.7,3.2-3.8,6.3-5.5,8.9
					c-0.5,0.8-1,1.6-1.4,2.4c-0.5,0.9-0.9,1.8-1.2,2.7C64.4,97.4,64,98.6,62.7,98.7L62.7,98.7L62.7,98.7z"/>
				<path class="st2" d="M56.4,30c0.1,0,0.3,0,0.4,0.1c0.4,0.1,0.5,0.6,0.7,0.9c0.4,0.6,0.7,1.2,1.2,1.7c0.8,1,1.6,2,2.5,2.9
					c2.4,2.4,4.8,4.9,7,7.7c2.6,2.7,4.8,6.5,6.2,10.8c0.8,2.4,1.5,4.9,1.7,7.8c0,0.1,0,0.3,0,0.4c0,0.1,0,0.3,0,0.4
					c0.3,2.8,0.2,5.5-0.2,8c-0.6,4.6-2.1,8.7-4.1,11.8c-1.7,3.2-3.6,6.1-5.5,8.8c-0.5,0.8-1,1.6-1.5,2.5c-0.5,0.9-0.9,1.8-1.3,2.8
					c-0.1,0.4-0.4,1-0.9,1.1c0,0,0,0,0,0c-0.2,0-0.5-0.1-0.6-0.3c-0.2-0.2-0.3-0.4-0.4-0.6c-0.1-0.3-0.3-0.5-0.5-0.8
					c-0.9-1.4-2-2.7-3.2-3.9c-2.4-2.4-4.8-4.9-7-7.7c-2.6-2.7-4.8-6.5-6.2-10.8c-0.8-2.4-1.5-4.9-1.7-7.8c0-0.1,0-0.3,0-0.4
					c0-0.1,0-0.3,0-0.4c-0.3-2.8-0.2-5.5,0.2-7.9c0.6-4.6,2.1-8.7,4.1-11.8c1.7-3.2,3.6-6.1,5.5-8.8c0.9-1.4,1.8-2.9,2.4-4.5
					c0.2-0.5,0.3-1.1,0.7-1.6c0.1-0.1,0.1-0.1,0.2-0.2C56.1,30,56.2,30,56.4,30C56.4,30,56.4,30,56.4,30 M56.4,27.9L56.4,27.9
					l-0.1,0c-0.5,0-0.9,0.1-1.3,0.3c-0.3,0.2-0.6,0.4-0.8,0.8c-0.4,0.6-0.6,1.2-0.8,1.7c0,0.1-0.1,0.3-0.1,0.4
					c-0.5,1.3-1.3,2.7-2.2,4.1c-1.7,2.5-3.8,5.6-5.5,9c-2.2,3.4-3.7,7.8-4.4,12.6c-0.4,2.7-0.5,5.6-0.2,8.4c0,0.1,0,0.2,0,0.3l0,0.2
					l0,0.1c0,0.1,0,0.2,0,0.3c0.3,2.8,0.9,5.6,1.8,8.3c1.5,4.5,3.8,8.5,6.6,11.5c2.3,2.9,5,5.6,7.1,7.8c1.2,1.2,2.2,2.4,2.9,3.5
					l0.1,0.2c0.1,0.1,0.2,0.3,0.2,0.4c0.2,0.4,0.5,0.8,0.9,1.2c0.6,0.5,1.3,0.8,2.1,0.8h0l0.1,0c1.3,0,2.2-0.9,2.8-2.4
					c0.3-0.8,0.7-1.7,1.1-2.5c0.4-0.7,0.9-1.5,1.4-2.3c1.7-2.5,3.8-5.6,5.5-9c2.2-3.4,3.7-7.8,4.4-12.6c0.4-2.7,0.5-5.6,0.2-8.4
					c0-0.1,0-0.2,0-0.3l0-0.2l0-0.1c0-0.1,0-0.2,0-0.3c-0.3-2.8-0.9-5.6-1.8-8.3c-1.5-4.5-3.8-8.5-6.6-11.5c-2.3-2.9-5-5.6-7.1-7.8
					c-0.9-0.9-1.6-1.8-2.3-2.6c-0.4-0.5-0.7-1-1-1.5c0,0,0-0.1-0.1-0.1c-0.2-0.4-0.6-1.2-1.6-1.6C57.2,28,56.8,27.9,56.4,27.9
					L56.4,27.9L56.4,27.9z"/>
			</g>
		</g>
		<g>
			<polygon class="st2" points="53.8,57.7 67.3,69.7 64.5,72.5 52.5,59 53.8,57.7 			"/>
			<polygon class="st2" points="52.5,70.5 64.5,57 67.3,59.8 53.8,71.8 52.5,70.5 			"/>
		</g>
	</g>
</g>
<g id="Layer_10" class="st0">
	<g class="st1">
		<g>
			<circle class="st2" cx="59.5" cy="64.5" r="42.5"/>
			<path class="st3" d="M59.5,110.1c-25.2,0-45.6-20.5-45.6-45.6s20.5-45.6,45.6-45.6s45.6,20.5,45.6,45.6S84.7,110.1,59.5,110.1z
				 M59.5,25c-21.7,0-39.4,17.7-39.4,39.4s17.7,39.4,39.4,39.4S99,86.2,99,64.5S81.3,25,59.5,25z"/>
		</g>
		<g>
			<path class="st3" d="M13.2,102.5c2.6-2.6,5.7-2.6,8-0.3c2.3,2.3,2.1,5.4-0.5,7.9c-2.7,2.6-5.7,2.7-8,0.4
				C10.4,108.2,10.5,105.2,13.2,102.5z M18.4,107.8c1.4-1.4,1.5-2.8,0.7-3.6c-0.8-0.8-2.2-0.8-3.6,0.6c-1.5,1.5-1.6,2.8-0.8,3.6
				C15.6,109.3,16.9,109.3,18.4,107.8z"/>
			<path class="st3" d="M25.1,106.4l3.1,2.1l-2.8,7.8l0,0l6.1-5.6l2.7,1.8l-9.3,7.7l-3.4-2.2C21.6,117.9,25.1,106.4,25.1,106.4z"/>
			<path class="st3" d="M35.2,112.7l6.5,2.9l-1.2,2.6l-3.6-1.6l-0.8,1.8l2.7,1.2l-0.7,1.7l-2.7-1.2l-0.8,1.8l3.8,1.6l-1.2,2.6
				l-6.7-2.9L35.2,112.7L35.2,112.7z"/>
			<path class="st3" d="M42.5,115.9l4.3,1l1.2,7l0,0l1.4-6.4l2.7,0.6l-2.6,11.2l-3.8-0.9l-1.4-8.3l0,0l-1.7,7.6l-2.6-0.6
				C39.9,127.2,42.5,115.9,42.5,115.9z"/>
			<path class="st3" d="M52.8,123.6l3.6,0.3l-0.2,2.1l-3.6-0.3L52.8,123.6z"/>
			<path class="st3" d="M58.1,118.6l4.4-0.2c2.9-0.2,4,1.1,4.1,2.8c0.1,1.2-0.3,2.2-1.3,2.5l0,0c1.3,0.2,1.9,1.2,2,2.5
				c0.1,2.1-0.9,3.5-3.9,3.6l-4.7,0.3C58.7,130.2,58.1,118.6,58.1,118.6z M62.9,123.2c0.7,0,1.1-0.4,1-1.2c0-0.8-0.5-1.1-1.3-1.1
				l-1.3,0.1l0.1,2.3L62.9,123.2z M63.2,127.4c0.7,0,1.1-0.5,1.1-1.4c0-0.7-0.5-1.1-1.2-1.1l-1.4,0.1l0.1,2.4L63.2,127.4z"/>
			<path class="st3" d="M76.2,125.7l-3,0.8l0,2.1l-3.1,0.8l0.6-12l3.9-1l6.2,10.3l-3.6,0.9L76.2,125.7L76.2,125.7z M75.3,123.9
				l-2.1-4l0,0l0,4.5L75.3,123.9L75.3,123.9z"/>
			<path class="st3" d="M78.7,115.2l2.9-1.4l2.3,4.7l0,0l0.7-6.1l3.2-1.5l-0.9,6.2l6.2,4.1l-3.6,1.7l-3.8-2.7l-0.3,1.6l1.2,2.6
				l-2.9,1.4C83.7,125.6,78.7,115.2,78.7,115.2z"/>
			<path class="st3" d="M88.5,110.2l5.8-4.2l1.7,2.3l-3.2,2.3l1.2,1.6l2.4-1.7l1.1,1.5l-2.4,1.7l1.2,1.6l3.3-2.4l1.7,2.3l-5.9,4.3
				L88.5,110.2L88.5,110.2z"/>
			<path class="st3" d="M95.1,105.4l2.9-3c2.4-2.5,5.1-2.3,7.7,0.3c2.8,2.7,3,5.2,0.7,7.6l-3.1,3.2L95.1,105.4z M104.4,108.3
				c0.7-0.8,0.6-1.9-0.8-3.3c-1.5-1.4-2.6-1.4-3.4-0.7l-0.8,0.8l4.1,4C103.5,109.1,104.4,108.3,104.4,108.3z"/>
		</g>
		<g>
			<g>
				<path class="st3" d="M59.7,48.8c-1.7,0-3.1-1.4-3.1-3.1v-10c0-1.7,1.4-3.1,3.1-3.1s3.1,1.4,3.1,3.1v10
					C62.8,47.4,61.4,48.8,59.7,48.8z"/>
				<path class="st3" d="M71.9,50.6c-0.6,0-1.1-0.2-1.7-0.5c-1.4-0.9-1.9-2.8-0.9-4.3L73,40c0.9-1.4,2.8-1.9,4.3-0.9
					c1.4,0.9,1.9,2.8,0.9,4.3l-3.7,5.8C73.9,50.1,72.9,50.6,71.9,50.6z"/>
				<path class="st3" d="M47.6,50.6c-1,0-2-0.5-2.6-1.4l-3.7-5.8c-0.9-1.4-0.5-3.3,0.9-4.3c1.4-0.9,3.3-0.5,4.3,0.9l3.7,5.8
					c0.9,1.4,0.5,3.3-0.9,4.3C48.7,50.5,48.1,50.6,47.6,50.6z"/>
				<circle class="st3" cx="36" cy="53.3" r="4.1"/>
				<circle class="st3" cx="83" cy="54" r="4.1"/>
			</g>
			<path class="st3" d="M83.3,81.7c-1.1-0.2-2.2-0.5-3.3-0.8c2.5-4.7,3.4-9.8,2.4-14.7c0,0,0,0,0,0c-0.2-0.8-0.4-1.6-0.6-2.4
				c-2.1-6.4-8.3-9.9-13.5-10.4c-0.2,0-0.4,0-0.6-0.1c-0.2,0-0.4,0-0.6,0c-1.9-0.1-3.8,0.3-5.3,1.1c-0.8,0.4-1.6,0.9-2.3,1.5
				c-0.8-0.7-1.7-1.2-2.7-1.6c-1.8-0.8-4-1-6.2-0.8c-0.2,0-0.3,0-0.5,0.1c-0.2,0-0.3,0-0.5,0.1c-3,0.5-6.1,2-8.6,4.4
				c-0.2,0.2-0.3,0.3-0.5,0.5c0,0,0,0,0,0c-1.4,1.5-2.6,3.3-3.3,5.4C35.3,69.5,36,75.6,39,81c-1.1,0.3-2.2,0.6-3.3,0.8
				c-1.4,0.3-2.3,1.5-2,2.8c0.3,1.3,1.6,2.2,3,1.9c1.6-0.3,3.4-0.8,5.2-1.5c4.4,5.2,10.6,8.1,17.2,8H60c6.6,0,12.8-3,17.2-8.2
				c1.8,0.6,3.6,1.1,5.2,1.4c1.4,0.3,2.7-0.6,3-1.9C85.6,83.2,84.7,81.9,83.3,81.7L83.3,81.7z M67.8,58.2c3.4,0.4,7.8,2.7,9.2,7
				c1.4,4.3,0.8,9.4-1.7,13.8c-6-2.8-10.9-7-13-10.6c1.1-2.9,1.1-5.8,0.1-8.5C63.9,58,66.6,58.1,67.8,58.2z M41.9,65.4
				c1.4-4.3,5.7-6.7,9.2-7.2c0.3-0.1,0.6-0.1,1-0.1c1.4,0,3.3,0.3,4.5,1.8c-1,2.7-1,5.6,0.1,8.5c-2.1,3.7-7,7.9-13,10.7
				C41.2,74.9,40.5,69.8,41.9,65.4L41.9,65.4z M60,88.4h-0.9c-1.3,0-2.6-0.1-3.8-0.4c-3.2-0.7-6.2-2.4-8.6-4.8
				c5-2.4,9.7-5.9,12.8-9.9c3.1,3.9,7.9,7.4,12.9,9.8c-2.3,2.3-5,4-8,4.8C62.9,88.2,61.5,88.4,60,88.4L60,88.4z"/>
		</g>
	</g>
</g>
<g id="Layer_11" class="st0">
	<g class="st1">
		<g>
			<g>
				<circle class="st2" cx="60.1" cy="64.3" r="42.5"/>
				<path class="st3" d="M60.1,109.9c-25.2,0-45.6-20.5-45.6-45.6s20.5-45.6,45.6-45.6s45.6,20.5,45.6,45.6S85.3,109.9,60.1,109.9
					L60.1,109.9z M60.1,24.8c-21.7,0-39.4,17.7-39.4,39.4s17.7,39.4,39.4,39.4S99.5,86,99.5,64.3S81.8,24.8,60.1,24.8z"/>
			</g>
			<g>
				<g>
					<path class="st3" d="M66.2,43.1c-4.2,4.2-6.1,9.8-5.7,15.3c5.5,0.4,11.1-1.5,15.3-5.7c4.2-4.2,6.1-9.8,5.7-15.3
						C76,37,70.4,38.9,66.2,43.1z"/>
					<path class="st3" d="M54,43.1c4.2,4.2,6.1,9.8,5.7,15.3c-5.5,0.4-11.1-1.5-15.3-5.7c-4.2-4.2-6.1-9.8-5.7-15.3
						C44.2,37,49.8,38.9,54,43.1z"/>
				</g>
				<g>
					<path class="st3" d="M66.2,61.4c-4.2,4.2-6.1,9.8-5.7,15.3C66,77,71.6,75.2,75.8,71c4.2-4.2,6.1-9.8,5.7-15.3
						C76,55.3,70.4,57.2,66.2,61.4z"/>
					<path class="st3" d="M54,61.4c4.2,4.2,6.1,9.8,5.7,15.3C54.2,77,48.6,75.2,44.4,71c-4.2-4.2-6.1-9.8-5.7-15.3
						C44.2,55.3,49.8,57.2,54,61.4z"/>
				</g>
				<g>
					<path class="st3" d="M66.2,79.7c-4.2,4.2-6.1,9.8-5.7,15.3c5.5,0.4,11.1-1.5,15.3-5.7c4.2-4.2,6.1-9.8,5.7-15.3
						C76,73.6,70.4,75.5,66.2,79.7z"/>
					<path class="st3" d="M54,79.7c4.2,4.2,6.1,9.8,5.7,15.3c-5.5,0.4-11.1-1.5-15.3-5.7c-4.2-4.2-6.1-9.8-5.7-15.3
						C44.2,73.6,49.8,75.5,54,79.7z"/>
				</g>
			</g>
		</g>
		<g>
			<path class="st3" d="M2.5,86.4l1.2,2.5c-1,0.4-1.4,1-0.9,2.2c0.5,1.1,1.1,1.1,1.7,0.9c0.4-0.2,0.6-0.4,0.6-0.8
				c0-0.4-0.3-1.2-0.5-1.9c-0.2-0.8-0.4-1.8-0.3-2.5C4.4,85.8,5,85.2,6,84.7c2-1,4.1-0.2,5.4,2.4c1.4,3,0.4,4.6-1.8,5.6l-1.1-2.4
				c1-0.5,1.3-1.1,0.9-2c-0.4-0.9-1-1.1-1.6-0.8c-0.4,0.2-0.6,0.4-0.6,0.7c0,0.3,0.2,1.2,0.4,2c0.3,1.1,0.4,1.9,0.4,2.5
				c-0.1,0.8-0.7,1.5-1.7,2c-1.9,0.9-3.9,0.8-5.5-2.5C-0.9,88.9,0.6,87.3,2.5,86.4L2.5,86.4z"/>
			<path class="st3" d="M8.9,95.4c2.9-2.2,6-1.8,7.9,0.8c1.9,2.6,1.4,5.6-1.6,7.8c-3,2.2-6,1.9-8-0.7C5.3,100.6,5.9,97.6,8.9,95.4z
				 M13.3,101.4c1.6-1.2,1.9-2.5,1.2-3.5c-0.7-0.9-2-1.1-3.7,0.1c-1.7,1.2-2,2.6-1.3,3.5C10.3,102.5,11.6,102.6,13.3,101.4z"/>
			<path class="st3" d="M15.8,106.2l4.6-5.1l2.4,2.1l-4.5,4.9c-0.9,1-0.8,1.9-0.1,2.6c0.8,0.7,1.7,0.7,2.6-0.3l4.5-4.9l2,1.8
				l-4.6,5.1c-2.2,2.4-4.5,2.4-6.7,0.5C13.9,111,13.6,108.6,15.8,106.2z"/>
			<path class="st3" d="M28.1,108l3.9,2.4c2.6,1.6,3,3.4,1.9,5.2c-0.7,1.2-1.6,1.8-2.7,1.5l0,0c0.8,0.8,0.6,1.9,0,2.9l-1.5,2.4
				l-2.7-1.7l1.5-2.4c0.5-0.8,0.4-1.2-0.2-1.6l-1.4-0.8l-2.1,3.5l-2.7-1.7C22.1,117.8,28.1,108,28.1,108z M29.2,115.2
				c0.7,0.4,1.3,0.3,1.7-0.5c0.4-0.7,0.4-1.4-0.4-1.8l-1.2-0.8l-1.4,2.3C27.9,114.4,29.2,115.2,29.2,115.2z"/>
			<path class="st3" d="M34.4,118.5c1.3-3.5,4-4.9,6.9-3.8c2.9,1.1,3.7,3.5,2.8,5.9c-0.1,0.2-0.2,0.5-0.3,0.7l-2.5-0.9
				c0.1-0.2,0.1-0.3,0.2-0.4c0.5-1.3,0-2.2-1-2.5c-1.2-0.4-2.4,0.3-3.1,2.1c-0.7,1.9-0.2,3.2,0.9,3.6c1,0.4,1.9,0,2.4-1.2
				c0-0.1,0.1-0.1,0.1-0.4l2.5,0.9c-0.1,0.2-0.1,0.4-0.2,0.5c-0.9,2.5-3.2,3.8-6,2.7C34.1,124.7,33.2,121.9,34.4,118.5L34.4,118.5z"
				/>
			<path class="st3" d="M46.6,116.7l7,1.3l-0.5,2.8l-3.9-0.7l-0.4,1.9l2.9,0.5l-0.3,1.8l-2.9-0.5l-0.4,2l4,0.8l-0.5,2.8l-7.1-1.3
				C44.5,128,46.6,116.7,46.6,116.7z"/>
			<path class="st3" d="M58.5,124.1c-0.2-3.6,1.7-6,5-6.2c3.2-0.2,5.5,1.9,5.7,5.5c0.2,3.7-1.7,6.1-5,6.3
				C61,130,58.8,127.9,58.5,124.1L58.5,124.1z M65.9,123.7c-0.1-2-1.1-3-2.2-2.9c-1.2,0.1-2,1.1-1.9,3.2c0.1,2.1,1.1,3,2.3,3
				C65.2,126.9,66.1,125.8,65.9,123.7z"/>
			<path class="st3" d="M69.7,117.5l6.8-1.7l0.7,2.8l-3.8,0.9l0.5,2.1l3-0.7l0.5,2.1l-3,0.7l1,4.2l-3.1,0.8L69.7,117.5L69.7,117.5z"
				/>
			<path class="st3" d="M80.9,114.2l6.3-3.1l1.3,2.6l-3.5,1.7l1,2l2.8-1.4l0.9,1.9l-2.8,1.4l1.9,3.9l-2.8,1.4L80.9,114.2L80.9,114.2
				z"/>
			<path class="st3" d="M88.1,110.4l2.6-1.7l6.3,9.7l-2.6,1.7C94.4,120.1,88.1,110.4,88.1,110.4z"/>
			<path class="st3" d="M92,108l3.4-2.9c2.2-1.9,3.8-1.6,5-0.3c0.8,0.9,1.1,1.9,0.5,2.8l0,0c1.1-0.6,2.3-0.2,3.1,0.8
				c1.3,1.6,1.4,3.3-0.9,5.2l-3.6,3.1C99.5,116.7,92,108,92,108z M98.6,108.6c0.5-0.5,0.6-1,0.1-1.6s-1.1-0.6-1.7-0.1l-1,0.8
				l1.5,1.7C97.5,109.6,98.6,108.6,98.6,108.6z M101.4,111.8c0.5-0.5,0.5-1.1,0-1.7c-0.4-0.5-1-0.6-1.6-0.1l-1.1,0.9l1.6,1.8
				C100.3,112.8,101.4,111.8,101.4,111.8z"/>
			<path class="st3" d="M99.3,101.6l2.9-3.6c1.9-2.4,3.8-2.5,5.4-1.2c1.1,0.9,1.5,1.9,1.1,2.9l0,0c0.9-0.7,1.9-0.4,2.9,0.4l2.2,1.8
				l-2,2.5l-2.2-1.8c-0.7-0.6-1.2-0.6-1.6,0l-1,1.3l3.2,2.6l-2,2.5C108.3,108.9,99.3,101.6,99.3,101.6z M106.6,101.5
				c0.5-0.6,0.4-1.2-0.3-1.8c-0.7-0.5-1.3-0.5-1.9,0.2l-0.9,1.1l2.1,1.7L106.6,101.5z"/>
			<path class="st3" d="M105.5,93.7l3.5-6.2l2.5,1.4l-1.9,3.5l1.7,1l1.5-2.6l1.6,0.9l-1.5,2.6l1.8,1l2-3.6l2.5,1.4l-3.6,6.3
				L105.5,93.7L105.5,93.7z"/>
		</g>
	</g>
</g>
<g id="Layer_8" class="st0">
	<g class="st1">
		<g>
			<circle class="st2" cx="59" cy="64.4" r="41.7"/>
			<path class="st3" d="M59,109.2c-24.7,0-44.8-20.1-44.8-44.8S34.3,19.7,59,19.7s44.8,20.1,44.8,44.8S83.7,109.2,59,109.2z
				 M59,25.7c-21.3,0-38.7,17.4-38.7,38.7s17.4,38.7,38.7,38.7s38.7-17.4,38.7-38.7S80.4,25.7,59,25.7z"/>
		</g>
		<g>
			<path class="st3" d="M8.8,25.9l2.1-2.4l3.2,2.7l2.1-2.4l-3.2-2.7l2.1-2.4l8.8,7.5l-2.1,2.4l-3.4-2.9l-2.1,2.4l3.4,2.9l-2.1,2.4
				L8.8,25.9L8.8,25.9z"/>
			<path class="st3" d="M28.3,19.9l-2.5,1.9l0.8,2l-2.5,1.9L20,14.4l3.2-2.4L33,19l-3,2.3L28.3,19.9L28.3,19.9z M26.8,18.7l-3.5-2.9
				l0,0L25,20C25,20,26.8,18.7,26.8,18.7z"/>
			<path class="st3" d="M31.8,15.3l2.5-1.2c0.4,1,1,1.4,2.2,0.9c1.1-0.5,1.1-1.1,0.9-1.7c-0.2-0.4-0.4-0.6-0.8-0.6
				c-0.4,0-1.2,0.3-1.9,0.5c-0.8,0.2-1.8,0.4-2.5,0.3c-0.8-0.2-1.4-0.8-1.9-1.8c-1-2-0.2-4.1,2.4-5.3c3-1.4,4.6-0.4,5.6,1.9
				l-2.4,1.1c-0.5-1-1.1-1.3-2-0.9c-0.9,0.4-1.1,1-0.8,1.6c0.2,0.4,0.4,0.6,0.7,0.6c0.3,0,1.2-0.2,2-0.4c1.1-0.3,1.9-0.4,2.5-0.3
				c0.8,0.1,1.5,0.7,2,1.7c0.9,1.9,0.8,3.9-2.6,5.5C34.3,18.6,32.7,17.1,31.8,15.3z"/>
			<path class="st3" d="M41.5,10.9l2.7-0.7c0.3,1,0.8,1.6,1.9,1.3c1.2-0.3,1.3-0.9,1.2-1.5c-0.1-0.4-0.3-0.7-0.7-0.7
				c-0.4,0-1.3,0-2,0.1c-0.9,0.1-1.9,0.1-2.5-0.2c-0.7-0.3-1.3-1-1.5-2.1C39.9,4.9,41,3,43.9,2.3c3.2-0.8,4.5,0.5,5.2,2.9l-2.6,0.6
				c-0.3-1-0.8-1.5-1.8-1.2c-1,0.2-1.3,0.8-1.1,1.4c0.1,0.4,0.3,0.7,0.6,0.8c0.3,0.1,1.2,0,2.1,0c1.1-0.1,1.9-0.1,2.5,0.1
				c0.8,0.3,1.4,1,1.6,2.1c0.5,2,0,4-3.6,4.9C43.3,14.7,42,12.9,41.5,10.9z"/>
			<path class="st3" d="M51.5,1l3.2-0.2l0.6,8.6l3.8-0.3l0.2,2.9l-7,0.5C52.2,12.5,51.5,1,51.5,1z"/>
			<path class="st3" d="M61.3,0.6l7.1,0.7l-0.3,2.9l-3.9-0.4l-0.2,2l3,0.3l-0.2,1.8l-3-0.3l-0.2,2l4.1,0.4l-0.3,2.9L60.2,12
				C60.2,12,61.3,0.6,61.3,0.6z"/>
			<path class="st3" d="M69.7,7.1l3.6,0.8L72.8,10l-3.6-0.8L69.7,7.1z"/>
			<path class="st3" d="M77.1,3.2l6.6,2.4l-1,2.7L79.1,7l-0.8,2.1l2.9,1.1l-0.7,2l-2.9-1.1l-1.5,4.1l-3-1.1L77.1,3.2L77.1,3.2z"/>
			<path class="st3" d="M86.4,6.8l4,2.3c2.7,1.5,3.1,3.3,2,5.2c-0.7,1.2-1.6,1.8-2.7,1.6l0,0c0.8,0.8,0.7,1.8,0.1,2.9l-1.4,2.4
				l-2.7-1.6l1.4-2.4c0.5-0.8,0.4-1.2-0.2-1.6l-1.4-0.8l-2.1,3.5l-2.7-1.6L86.4,6.8L86.4,6.8z M87.6,14c0.7,0.4,1.3,0.3,1.7-0.5
				c0.4-0.7,0.3-1.4-0.4-1.8l-1.2-0.7l-1.3,2.3C86.3,13.2,87.6,14,87.6,14z"/>
			<path class="st3" d="M96.7,13.2l5.4,4.6l-1.9,2.2l-3-2.6l-1.3,1.5l2.3,1.9L97,22.2l-2.3-1.9l-1.3,1.5l3.1,2.7l-1.9,2.2L89.2,22
				L96.7,13.2L96.7,13.2z"/>
			<path class="st3" d="M104.2,20l4.6,5.5l-2.2,1.9l-2.6-3l-1.5,1.3l1.9,2.3L103,29l-1.9-2.3L99.6,28l2.6,3.1L100,33l-4.7-5.6
				L104.2,20L104.2,20z"/>
		</g>
		<g>
			<path class="st3" d="M7.7,94.9l1.6,2.3c-0.9,0.6-1.2,1.3-0.5,2.3c0.7,1,1.3,0.9,1.8,0.6c0.4-0.3,0.5-0.5,0.4-0.9
				c-0.1-0.4-0.5-1.2-0.8-1.8c-0.4-0.8-0.8-1.7-0.7-2.4c0-0.8,0.5-1.6,1.4-2.2c1.8-1.3,4-1,5.7,1.4c1.9,2.7,1.3,4.4-0.8,5.9
				l-1.6-2.2c0.9-0.6,1.1-1.3,0.5-2.2c-0.6-0.8-1.2-0.9-1.7-0.5c-0.4,0.3-0.5,0.5-0.5,0.8c0.1,0.3,0.4,1.1,0.8,1.9
				c0.5,1,0.8,1.7,0.8,2.4c0,0.9-0.4,1.6-1.3,2.3c-1.7,1.2-3.7,1.5-5.9-1.5C4.9,98,6,96.1,7.7,94.9L7.7,94.9z"/>
			<path class="st3" d="M19.7,98.6l3.2,3l-2.5,6.7l0,0l4.5-4.9l2,1.9l-7.9,8.4l-2.9-2.7l3-7.9l0,0l-5.3,5.7l-2-1.9
				C11.8,107,19.7,98.6,19.7,98.6z"/>
			<path class="st3" d="M28.3,117.4l-2.7-1.6l-1.5,1.5l-2.7-1.6l9-8.1l3.5,2.1l-3,11.7l-3.2-1.9C27.7,119.4,28.3,117.4,28.3,117.4z
				 M28.9,115.5l1.4-4.3l0,0l-3.2,3.2C27,114.4,28.9,115.5,28.9,115.5z"/>
			<path class="st3" d="M35.3,117.1c1.2-3.6,3.9-5,6.8-3.9c2.9,1,3.8,3.4,2.9,5.9c-0.1,0.2-0.2,0.5-0.2,0.7l-2.5-0.9
				c0.1-0.2,0.1-0.3,0.1-0.4c0.5-1.3-0.1-2.2-1-2.5c-1.2-0.4-2.4,0.3-3,2.2c-0.7,1.9-0.2,3.2,1,3.6c1,0.4,1.9-0.1,2.3-1.3
				c0,0,0.1-0.1,0.1-0.4l2.5,0.9c-0.1,0.2-0.1,0.4-0.2,0.6c-0.9,2.5-3.1,3.8-5.9,2.8C35.1,123.3,34.1,120.5,35.3,117.1L35.3,117.1z"
				/>
			<path class="st3" d="M47.4,115l3.1,0.4l-0.7,5.2l0,0l4-4.7l3.5,0.5l-4.2,4.7l3,6.8l-3.9-0.5l-1.7-4.4l-1.1,1.1l-0.4,2.8l-3.1-0.4
				L47.4,115L47.4,115z"/>
			<path class="st3" d="M62,116.2l4.4-0.6c2.7-0.4,4.3,0.8,4.7,3.6c0.4,2.6-0.6,4.2-3.3,4.6l-1.5,0.2l0.4,3.2l-3.1,0.4L62,116.2
				L62,116.2z M67.3,121.7c0.8-0.1,1.2-0.6,1-1.8c-0.1-1.1-0.7-1.5-1.6-1.4l-1.2,0.2l0.4,3.2L67.3,121.7z"/>
			<path class="st3" d="M73,120.4c-1.2-3.4,0.1-6.3,3.1-7.3c3.1-1.1,5.8,0.4,7,3.8c1.2,3.5,0,6.3-3.1,7.4
				C76.9,125.4,74.2,124,73,120.4L73,120.4z M80,118c-0.7-1.9-1.8-2.6-2.9-2.2c-1.1,0.4-1.6,1.6-1,3.5c0.7,2,1.9,2.6,3,2.3
				C80.1,121.2,80.6,120,80,118z"/>
			<path class="st3" d="M85.4,117l-3.5-5.9l2.7-1.6l3.4,5.7c0.7,1.2,1.6,1.3,2.5,0.8c0.9-0.5,1.2-1.4,0.5-2.6l-3.4-5.7l2.3-1.4
				l3.5,5.9c1.7,2.8,1,5.1-1.5,6.5C89.4,120.2,87,119.8,85.4,117z"/>
			<path class="st3" d="M94.3,110.2c-2.5-2.8-2.5-5.8-0.2-7.9c2.3-2.1,4.8-1.7,6.5,0.3c0.2,0.2,0.4,0.4,0.5,0.5l-2,1.8
				c-0.1-0.1-0.2-0.3-0.3-0.3c-0.9-1-1.9-1-2.7-0.3c-0.9,0.8-0.8,2.2,0.5,3.7c1.4,1.5,2.7,1.7,3.6,0.8c0.8-0.7,0.9-1.7,0-2.7
				c0,0-0.1-0.1-0.3-0.3l2-1.8c0.2,0.2,0.3,0.3,0.4,0.4c1.8,2,1.9,4.5-0.4,6.6C99.7,113.4,96.8,112.9,94.3,110.2L94.3,110.2z"/>
			<path class="st3" d="M98.3,98.7l1.9-2.5l3.3,2.5l1.9-2.6l-3.3-2.5l1.9-2.5l9.3,6.8l-1.9,2.5l-3.6-2.6l-1.9,2.6l3.6,2.6l-1.9,2.5
				C107.6,105.5,98.3,98.7,98.3,98.7z"/>
		</g>
		<path class="st3" d="M74.2,37.3c0-0.9-0.7-1.6-1.6-1.6S71,36.4,71,37.3c0,0.6,0.4,1.2,0.9,1.5l-3.7,6.9l-3.7-7.1
			c0.4-0.3,0.7-0.8,0.7-1.3c0-0.9-0.7-1.6-1.6-1.6c-0.9,0-1.6,0.7-1.6,1.6c0,0.5,0.3,1,0.7,1.3l-3.8,7.1l-3.7-7.1
			c0.4-0.3,0.7-0.8,0.7-1.3c0-0.9-0.7-1.6-1.6-1.6c-0.9,0-1.6,0.7-1.6,1.6c0,0.6,0.3,1,0.7,1.3l-3.7,7.1l-3.6-6.9
			c0.7-0.2,1.1-0.8,1.1-1.5c0-0.9-0.7-1.6-1.6-1.6c-0.9,0-1.6,0.7-1.6,1.6c0,0.7,0.5,1.3,1.2,1.5l0.6,13.7h26.7l0.6-13.6
			C73.6,38.8,74.2,38.1,74.2,37.3z"/>
		<path class="st3" d="M74.4,54.6L74.4,54.6l-30.8,0.1l0-0.1c-3.9,3.9-6.3,9.3-6.3,15.3c0,12,9.7,21.6,21.6,21.6s21.6-9.7,21.6-21.6
			C80.7,63.9,78.3,58.5,74.4,54.6z M50.7,60.2c2.3,0,4.5,0.8,6.2,2.2l-1.7,2.1c-1.3-1-2.9-1.6-4.5-1.6c-1.5,0-3,0.5-4.2,1.4
			l-1.6-2.2C46.6,60.9,48.6,60.2,50.7,60.2L50.7,60.2z M59,84.6c-6.8,0-12.3-6-13.2-13.8h1.7c1.2,5.9,5.9,10.3,11.5,10.3
			c5.6,0,10.3-4.4,11.5-10.3h1.7C71.3,78.7,65.8,84.6,59,84.6z M71.3,64.6c-1.3-1-2.9-1.6-4.5-1.6c-1.5,0-3,0.5-4.2,1.4L61,62.1
			c1.7-1.2,3.7-1.9,5.8-1.9c2.3,0,4.5,0.8,6.2,2.2C73,62.4,71.3,64.6,71.3,64.6z"/>
	</g>
</g>
<g id="Layer_3" class="st0">
	<g class="st1">
		<g>
			<circle class="st2" cx="59.5" cy="64.2" r="42.5"/>
			<path class="st3" d="M59.5,109.9c-25.2,0-45.6-20.5-45.6-45.6s20.5-45.6,45.6-45.6s45.6,20.5,45.6,45.6S84.7,109.9,59.5,109.9z
				 M59.5,24.8c-21.7,0-39.4,17.7-39.4,39.4s17.7,39.4,39.4,39.4S99,86,99,64.2S81.3,24.8,59.5,24.8z"/>
		</g>
		<g>
			<path class="st3" d="M24.5,105.3l2.5,2l-7.2,9l-2.5-2L24.5,105.3z"/>
			<path class="st3" d="M25.8,111.7c0.7,0.4,1.1,0.3,1.5-0.3l0-0.1l-0.8-0.6l1.7-2.5l2.2,1.5l-1.2,1.7c-1.4,2.1-2.8,2.4-4.3,1.5
				L25.8,111.7z"/>
			<path class="st3" d="M31.3,110.6l4.2,2l-1.2,6.2l0,0l4-4.9l3.9,1.8l-4.9,10.4l-2.9-1.3l3.3-7l0,0l-5,6.2l-2.1-1l1.5-7.8l0,0
				l-3.2,7l-2.5-1.1L31.3,110.6L31.3,110.6z"/>
			<path class="st3" d="M46.3,116.9l3.7,0.5l0.8,8.3l0,0L54,118l3.2,0.5L52,129.4l-4-0.6L46.3,116.9z"/>
			<path class="st3" d="M57.9,118.3l7.1-0.2l0.1,2.9l-4,0.1l0.1,2l3-0.1l0.1,1.8l-3,0.1l0.1,2l4.1-0.1l0.1,2.9l-7.3,0.2
				C58.3,129.9,57.9,118.3,57.9,118.3z"/>
			<path class="st3" d="M67.1,123.9c-0.8-3.7,0.8-6.4,3.9-7.1c2.8-0.6,4.9,0.6,5.4,3.2c0.1,0.3,0.1,0.6,0.1,0.8l-2.6,0.5
				c0-0.2-0.1-0.3-0.1-0.4c-0.2-1.1-1.2-1.5-2.1-1.3c-1.3,0.3-1.9,1.5-1.5,3.6c0.4,2.1,1.6,2.9,2.8,2.6c0.9-0.2,1.6-1,1.3-2l0-0.1
				l-2.1,0.4l-0.3-1.6l4.8-1l1.2,5.7l-2.4,0.5c0-0.3-0.2-1.1-0.3-1.8l0,0c0,1.3-0.9,2.2-2.4,2.5C70.2,129.2,67.8,127.4,67.1,123.9
				L67.1,123.9z"/>
			<path class="st3" d="M86.2,121.9l-2.9,1.3l0.4,2.1l-2.9,1.3l-1.4-12l3.7-1.6l7.8,9.2l-3.4,1.5C87.4,123.6,86.2,121.9,86.2,121.9z
				 M84.9,120.3l-2.7-3.6l0,0l0.8,4.5C83,121.1,84.9,120.3,84.9,120.3z"/>
			<path class="st3" d="M86.8,111.1l3.6-2.5l6.1,3.8l0,0l-3.9-5.3l2.2-1.6l6.7,9.4l-3.2,2.3l-7.1-4.4l0,0l4.6,6.3l-2.2,1.6
				L86.8,111.1z"/>
		</g>
		<g>
			<path class="st3" d="M89.6,61.4c0-8.2-6.6-14.9-14.8-14.9c-8,0-14.5,6.3-14.8,14.3c-0.3-8-6.8-14.3-14.8-14.3
				c-8.2,0-14.9,6.6-14.9,14.8c0,8,6.4,14.6,14.3,14.8l0,0c8.3,0.1,14.9,6.4,15.2,14.3c0.3-7.9,7-14.2,15.2-14.3l0,0
				C83.1,76,89.6,69.4,89.6,61.4z"/>
			<path class="st2" d="M66.6,52.6l6,0l3.2,13h0l3.2-13l5.1,0l-5.6,18.5l-6.5,0L66.6,52.6L66.6,52.6z"/>
		</g>
	</g>
</g>
</svg>
