<?xml version="1.0" encoding="utf-8"?>
<!-- Generator: Adobe Illustrator 27.2.0, SVG Export Plug-In . SVG Version: 6.00 Build 0)  -->
<svg version="1.1" id="Layer_1" xmlns="http://www.w3.org/2000/svg" xmlns:xlink="http://www.w3.org/1999/xlink" x="0px" y="0px"
	 viewBox="0 0 119.1 130.4" style="enable-background:new 0 0 119.1 130.4;" xml:space="preserve">
<style type="text/css">
	.st0{fill:#FFFFFF;}
	.st1{fill:#484A9F;}
</style>
<g>
	<circle class="st0" cx="59.5" cy="64.2" r="42.5"/>
	<path class="st1" d="M59.5,109.9c-25.2,0-45.6-20.5-45.6-45.6s20.5-45.6,45.6-45.6s45.6,20.5,45.6,45.6S84.7,109.9,59.5,109.9z
		 M59.5,24.8c-21.7,0-39.4,17.7-39.4,39.4s17.7,39.4,39.4,39.4S99,86,99,64.2S81.3,24.8,59.5,24.8z"/>
</g>
<g>
	<path class="st1" d="M24.5,105.3l2.5,2l-7.2,9l-2.5-2L24.5,105.3z"/>
	<path class="st1" d="M25.8,111.7c0.7,0.4,1.1,0.3,1.5-0.3v-0.1l-0.8-0.6l1.7-2.5l2.2,1.5l-1.2,1.7c-1.4,2.1-2.8,2.4-4.3,1.5
		L25.8,111.7z"/>
	<path class="st1" d="M31.3,110.6l4.2,2l-1.2,6.2l0,0l4-4.9l3.9,1.8l-4.9,10.4l-2.9-1.3l3.3-7l0,0l-5,6.2l-2.1-1l1.5-7.8l0,0l-3.2,7
		l-2.5-1.1L31.3,110.6L31.3,110.6z"/>
	<path class="st1" d="M46.3,116.9l3.7,0.5l0.8,8.3l0,0L54,118l3.2,0.5L52,129.4l-4-0.6L46.3,116.9z"/>
	<path class="st1" d="M57.9,118.3l7.1-0.2l0.1,2.9l-4,0.1l0.1,2l3-0.1l0.1,1.8l-3,0.1l0.1,2l4.1-0.1l0.1,2.9l-7.3,0.2
		C58.3,129.9,57.9,118.3,57.9,118.3z"/>
	<path class="st1" d="M67.1,123.9c-0.8-3.7,0.8-6.4,3.9-7.1c2.8-0.6,4.9,0.6,5.4,3.2c0.1,0.3,0.1,0.6,0.1,0.8l-2.6,0.5
		c0-0.2-0.1-0.3-0.1-0.4c-0.2-1.1-1.2-1.5-2.1-1.3c-1.3,0.3-1.9,1.5-1.5,3.6s1.6,2.9,2.8,2.6c0.9-0.2,1.6-1,1.3-2v-0.1l-2.1,0.4
		l-0.3-1.6l4.8-1l1.2,5.7l-2.4,0.5c0-0.3-0.2-1.1-0.3-1.8l0,0c0,1.3-0.9,2.2-2.4,2.5C70.2,129.2,67.8,127.4,67.1,123.9L67.1,123.9z"
		/>
	<path class="st1" d="M86.2,121.9l-2.9,1.3l0.4,2.1l-2.9,1.3l-1.4-12l3.7-1.6l7.8,9.2l-3.4,1.5C87.4,123.6,86.2,121.9,86.2,121.9z
		 M84.9,120.3l-2.7-3.6l0,0l0.8,4.5C83,121.1,84.9,120.3,84.9,120.3z"/>
	<path class="st1" d="M86.8,111.1l3.6-2.5l6.1,3.8l0,0l-3.9-5.3l2.2-1.6l6.7,9.4l-3.2,2.3l-7.1-4.4l0,0l4.6,6.3l-2.2,1.6L86.8,111.1
		z"/>
</g>
<g>
	<path class="st1" d="M89.6,61.4c0-8.2-6.6-14.9-14.8-14.9c-8,0-14.5,6.3-14.8,14.3c-0.3-8-6.8-14.3-14.8-14.3
		c-8.2,0-14.9,6.6-14.9,14.8c0,8,6.4,14.6,14.3,14.8l0,0c8.3,0.1,14.9,6.4,15.2,14.3c0.3-7.9,7-14.2,15.2-14.3l0,0
		C83.1,76,89.6,69.4,89.6,61.4z"/>
	<path class="st0" d="M66.6,52.6h6l3.2,13l0,0l3.2-13h5.1l-5.6,18.5H72L66.6,52.6L66.6,52.6z"/>
</g>
</svg>
