<?xml version="1.0" encoding="UTF-8"?><svg id="Layer_1" xmlns="http://www.w3.org/2000/svg" viewBox="0 0 104 104"><defs><style>.cls-1{fill:#fff;}.cls-2{fill:#484a9f;}.cls-3{fill:#5050a2;}</style></defs><g><circle class="cls-1" cx="52.00026" cy="52.00005" r="42.88229"/><path class="cls-2" d="m52.00051,98.00051c-25.36503,0-46.00051-20.63548-46.00051-46.00051S26.63548,5.99949,52.00051,5.99949s45.99949,20.63548,45.99949,46.00051-20.63548,46.00051-45.99949,46.00051Zm0-85.76531c-21.92646,0-39.7648,17.83834-39.7648,39.7648s17.83834,39.7648,39.7648,39.7648,39.76379-17.83834,39.76379-39.7648S73.92595,12.2352,52.00051,12.2352Z"/></g><path class="cls-3" d="m66.47072,39.5961l-1.83209,2.41954c-2.63086-1.99302-6.46179-1.99496-9.1004-.00582l-1.82823-2.41954c3.67583-2.77044,9.08876-2.76851,12.76072.00582m-2.77043,10.05426l.04071-.2404,2.3924-.05816-.03103.3354c-.74834,8.41021-6.68666,14.87782-13.81345,15.05037-7.12872.17254-13.36755-6.00231-14.51334-14.366l-.04653-.33346,2.3924-.05622.05235.23846c1.42497,6.18649,6.36486,10.41293,12.01431,10.27722,5.64947-.13765,10.38191-4.59867,11.51219-10.8472m-14.1256-9.64519l-1.83404,2.41954c-2.62697-1.99302-6.46179-1.99495-9.09847-.00582l-1.83016-2.41954c3.6739-2.77239,9.09072-2.77045,12.76267.00582m18.44898-12.30901c-5.506-1.38038-11.0469-.48856-15.64362,2.0725-1.80302-1.1012-3.80186-1.9523-5.96161-2.49321-11.47341-2.87708-23.11161,4.08685-25.9945,15.55444-2.28964,9.10234,1.63046,18.30162,9.08101,23.14845-.5603,4.87009,2.55912,9.51917,7.44667,10.74445,3.80766.95386,7.65217-.42846,10.02324-3.23962.26367-.1803,1.91934-1.79527,5.21713-1.55486,3.29777.24234,5.04457,2.42341,5.07753,2.39627,1.2466,1.29895,2.8635,2.27801,4.7402,2.74718,5.31988,1.33578,10.71731-1.89414,12.05504-7.21208.28497-1.13222.36058-2.26637.25589-3.36564,4.44941-2.8383,7.8674-7.30901,9.25551-12.82664,2.88289-11.46759-4.07907-23.09416-15.55248-25.97124"/></svg>