<?xml version="1.0" encoding="utf-8"?>
<!-- Generator: Adobe Illustrator 27.2.0, SVG Export Plug-In . SVG Version: 6.00 Build 0)  -->
<svg version="1.1" id="Layer_1" xmlns="http://www.w3.org/2000/svg" xmlns:xlink="http://www.w3.org/1999/xlink" x="0px" y="0px"
	 viewBox="0 0 119.1 130.4" style="enable-background:new 0 0 119.1 130.4;" xml:space="preserve">
<style type="text/css">
	.st0{fill:#FFFFFF;}
	.st1{fill:#484A9F;}
</style>
<g>
	<circle class="st0" cx="59.5" cy="64.5" r="42.5"/>
	<path class="st1" d="M59.5,110.1c-25.2,0-45.6-20.5-45.6-45.6s20.5-45.6,45.6-45.6s45.6,20.5,45.6,45.6S84.7,110.1,59.5,110.1z
		 M59.5,25c-21.7,0-39.4,17.7-39.4,39.4s17.7,39.4,39.4,39.4S99,86.2,99,64.5S81.3,25,59.5,25z"/>
</g>
<g>
	<path class="st1" d="M13.2,102.5c2.6-2.6,5.7-2.6,8-0.3c2.3,2.3,2.1,5.4-0.5,7.9c-2.7,2.6-5.7,2.7-8,0.4
		C10.4,108.2,10.5,105.2,13.2,102.5z M18.4,107.8c1.4-1.4,1.5-2.8,0.7-3.6c-0.8-0.8-2.2-0.8-3.6,0.6c-1.5,1.5-1.6,2.8-0.8,3.6
		C15.6,109.3,16.9,109.3,18.4,107.8z"/>
	<path class="st1" d="M25.1,106.4l3.1,2.1l-2.8,7.8l0,0l6.1-5.6l2.7,1.8l-9.3,7.7l-3.4-2.2C21.6,117.9,25.1,106.4,25.1,106.4z"/>
	<path class="st1" d="M35.2,112.7l6.5,2.9l-1.2,2.6l-3.6-1.6l-0.8,1.8l2.7,1.2l-0.7,1.7l-2.7-1.2l-0.8,1.8l3.8,1.6l-1.2,2.6
		l-6.7-2.9L35.2,112.7L35.2,112.7z"/>
	<path class="st1" d="M42.5,115.9l4.3,1l1.2,7l0,0l1.4-6.4l2.7,0.6l-2.6,11.2l-3.8-0.9l-1.4-8.3l0,0l-1.7,7.6l-2.6-0.6
		C39.9,127.2,42.5,115.9,42.5,115.9z"/>
	<path class="st1" d="M52.8,123.6l3.6,0.3l-0.2,2.1l-3.6-0.3L52.8,123.6z"/>
	<path class="st1" d="M58.1,118.6l4.4-0.2c2.9-0.2,4,1.1,4.1,2.8c0.1,1.2-0.3,2.2-1.3,2.5l0,0c1.3,0.2,1.9,1.2,2,2.5
		c0.1,2.1-0.9,3.5-3.9,3.6l-4.7,0.3C58.7,130.2,58.1,118.6,58.1,118.6z M62.9,123.2c0.7,0,1.1-0.4,1-1.2c0-0.8-0.5-1.1-1.3-1.1
		l-1.3,0.1l0.1,2.3L62.9,123.2z M63.2,127.4c0.7,0,1.1-0.5,1.1-1.4c0-0.7-0.5-1.1-1.2-1.1l-1.4,0.1l0.1,2.4H63.2z"/>
	<path class="st1" d="M76.2,125.7l-3,0.8v2.1l-3.1,0.8l0.6-12l3.9-1l6.2,10.3l-3.6,0.9L76.2,125.7L76.2,125.7z M75.3,123.9l-2.1-4
		l0,0v4.5L75.3,123.9L75.3,123.9z"/>
	<path class="st1" d="M78.7,115.2l2.9-1.4l2.3,4.7l0,0l0.7-6.1l3.2-1.5l-0.9,6.2l6.2,4.1l-3.6,1.7l-3.8-2.7l-0.3,1.6l1.2,2.6
		l-2.9,1.4C83.7,125.6,78.7,115.2,78.7,115.2z"/>
	<path class="st1" d="M88.5,110.2l5.8-4.2l1.7,2.3l-3.2,2.3l1.2,1.6l2.4-1.7l1.1,1.5l-2.4,1.7l1.2,1.6l3.3-2.4l1.7,2.3l-5.9,4.3
		L88.5,110.2L88.5,110.2z"/>
	<path class="st1" d="M95.1,105.4l2.9-3c2.4-2.5,5.1-2.3,7.7,0.3c2.8,2.7,3,5.2,0.7,7.6l-3.1,3.2L95.1,105.4z M104.4,108.3
		c0.7-0.8,0.6-1.9-0.8-3.3c-1.5-1.4-2.6-1.4-3.4-0.7l-0.8,0.8l4.1,4C103.5,109.1,104.4,108.3,104.4,108.3z"/>
</g>
<g>
	<g>
		<path class="st1" d="M59.7,48.8c-1.7,0-3.1-1.4-3.1-3.1v-10c0-1.7,1.4-3.1,3.1-3.1s3.1,1.4,3.1,3.1v10
			C62.8,47.4,61.4,48.8,59.7,48.8z"/>
		<path class="st1" d="M71.9,50.6c-0.6,0-1.1-0.2-1.7-0.5c-1.4-0.9-1.9-2.8-0.9-4.3L73,40c0.9-1.4,2.8-1.9,4.3-0.9
			c1.4,0.9,1.9,2.8,0.9,4.3l-3.7,5.8C73.9,50.1,72.9,50.6,71.9,50.6z"/>
		<path class="st1" d="M47.6,50.6c-1,0-2-0.5-2.6-1.4l-3.7-5.8c-0.9-1.4-0.5-3.3,0.9-4.3c1.4-0.9,3.3-0.5,4.3,0.9l3.7,5.8
			c0.9,1.4,0.5,3.3-0.9,4.3C48.7,50.5,48.1,50.6,47.6,50.6z"/>
		<circle class="st1" cx="36" cy="53.3" r="4.1"/>
		<circle class="st1" cx="83" cy="54" r="4.1"/>
	</g>
	<path class="st1" d="M83.3,81.7c-1.1-0.2-2.2-0.5-3.3-0.8c2.5-4.7,3.4-9.8,2.4-14.7l0,0c-0.2-0.8-0.4-1.6-0.6-2.4
		c-2.1-6.4-8.3-9.9-13.5-10.4c-0.2,0-0.4,0-0.6-0.1c-0.2,0-0.4,0-0.6,0c-1.9-0.1-3.8,0.3-5.3,1.1c-0.8,0.4-1.6,0.9-2.3,1.5
		c-0.8-0.7-1.7-1.2-2.7-1.6c-1.8-0.8-4-1-6.2-0.8c-0.2,0-0.3,0-0.5,0.1c-0.2,0-0.3,0-0.5,0.1c-3,0.5-6.1,2-8.6,4.4
		c-0.2,0.2-0.3,0.3-0.5,0.5l0,0c-1.4,1.5-2.6,3.3-3.3,5.4C35.3,69.5,36,75.6,39,81c-1.1,0.3-2.2,0.6-3.3,0.8c-1.4,0.3-2.3,1.5-2,2.8
		s1.6,2.2,3,1.9c1.6-0.3,3.4-0.8,5.2-1.5c4.4,5.2,10.6,8.1,17.2,8H60c6.6,0,12.8-3,17.2-8.2c1.8,0.6,3.6,1.1,5.2,1.4
		c1.4,0.3,2.7-0.6,3-1.9C85.6,83.2,84.7,81.9,83.3,81.7L83.3,81.7z M67.8,58.2c3.4,0.4,7.8,2.7,9.2,7c1.4,4.3,0.8,9.4-1.7,13.8
		c-6-2.8-10.9-7-13-10.6c1.1-2.9,1.1-5.8,0.1-8.5C63.9,58,66.6,58.1,67.8,58.2z M41.9,65.4c1.4-4.3,5.7-6.7,9.2-7.2
		c0.3-0.1,0.6-0.1,1-0.1c1.4,0,3.3,0.3,4.5,1.8c-1,2.7-1,5.6,0.1,8.5c-2.1,3.7-7,7.9-13,10.7C41.2,74.9,40.5,69.8,41.9,65.4
		L41.9,65.4z M60,88.4h-0.9c-1.3,0-2.6-0.1-3.8-0.4c-3.2-0.7-6.2-2.4-8.6-4.8c5-2.4,9.7-5.9,12.8-9.9c3.1,3.9,7.9,7.4,12.9,9.8
		c-2.3,2.3-5,4-8,4.8C62.9,88.2,61.5,88.4,60,88.4L60,88.4z"/>
</g>
</svg>
