<?xml version="1.0" encoding="UTF-8"?><svg id="Layer_1" xmlns="http://www.w3.org/2000/svg" viewBox="0 0 104 104"><defs><style>.cls-1{fill:#fff;}.cls-2{fill:#484a9f;}</style></defs><circle class="cls-1" cx="52.0001" cy="52.00037" r="43.00591"/><path class="cls-2" d="m52,98c-25.36442,0-46-20.63558-46-46S26.63558,6,52,6s46,20.63558,46,46-20.63558,46-46,46Zm0-86.01195c-22.06242,0-40.01195,17.94953-40.01195,40.01195s17.94953,40.01195,40.01195,40.01195,40.01195-17.94953,40.01195-40.01195S74.06242,11.98805,52,11.98805Z"/><path class="cls-2" d="m35.00852,27.58778c-.97559-1.99212-.55066-4.24154,2.21043-5.59041,2.75232-1.34692,4.79122-.30408,5.76779,1.68609,1.00093,2.04475.67249,4.25908-2.17047,5.65083-2.77084,1.35667-4.75224.40544-5.80775-1.74651Zm5.60113-2.72698c-.49023-1.00191-1.37616-1.50286-2.46188-.97072-1.0867.53214-1.24264,1.54184-.7524,2.5418.54384,1.10911,1.39663,1.54379,2.4921,1.0097,1.11399-.54579,1.24459-1.5165.72219-2.58079Z"/><path class="cls-2" d="m44.4818,19.31133l3.46866-.35086,3.01644,3.76397h.00975l-.42981-4.02712,2.19484-.22221.79919,7.84372-2.90728.29433-3.67723-4.59045-.02144.00195.54189,4.90622-2.19581.22416-.79919-7.84372Z"/><path class="cls-2" d="m56.57583,18.91758l2.48235.57502-1.25823,5.46371,3.39654.78554-.51167,2.21628-5.87792-1.35667,1.76893-7.68388Z"/><path class="cls-2" d="m64.13399,26.15509l-.78359-5.75999,2.84198,1.50676.33917,3.06615.02729.01559,2.72601-1.44438,2.34396,1.23971-5.21225,2.58274-1.47947,2.7952-2.28255-1.20853,1.47947-2.79325Z"/><path class="cls-2" d="m22.00907,62.80753c0-3.14996,2.611-5.33798,7.5182-5.33798,5.08945,0,6.94318,2.28061,6.96852,4.31366,0,.07797,0,.21734-.01267.32552h-3.302v-.0614c0-.74558-.9522-1.67537-3.41993-1.67537-2.58274,0-3.81075,1.02335-3.81075,2.43557,0,1.33425,1.03115,2.40536,3.83804,2.40536,2.38781,0,3.4443-.7602,3.4443-1.62956v-.07699h3.302c.01364.10818.01364.24755.01364.27874,0,2.25039-2.00966,4.32925-6.98216,4.32925-5.33798,0-7.55718-2.42095-7.55718-5.30679Z"/><path class="cls-2" d="m48.88122,66.12806h-6.14691l-1.01848,1.76991h-4.21425l6.34184-10.21107h4.60702l6.34281,10.21107h-4.9072l-1.00483-1.76991Zm-1.07013-1.9083l-1.95703-3.45989h-.02729l-1.99602,3.45989h3.98034Z"/><path class="cls-2" d="m55.94135,57.68689h3.84974v7.04551h7.07377v3.16556h-10.92351v-10.21107Z"/><path class="cls-2" d="m67.98665,64.46828h3.34099c0,.65202.57405,1.16369,3.39362,1.16369,2.89754,0,3.37997-.43468,3.37997-.93076,0-.29531-.22124-.51265-.88788-.60621-.73096-.10818-2.34883-.16958-3.68016-.23196-1.2787-.06238-3.26302-.21734-4.22789-.63643-.87521-.3723-1.4093-1.03992-1.4093-2.14123,0-1.89271,2.035-3.61583,6.95487-3.61583,5.74245,0,6.56502,1.9083,6.56502,3.55346h-3.26302c0-.63545-.76995-1.07013-3.24937-1.07013-2.2962,0-3.21039.3723-3.21039.88398,0,.26412.18323.46489.67833.55846.50875.10916,2.23187.18713,3.61583.26412,1.63151.07699,3.23573.17056,4.37213.54286,1.09547.3723,1.59155,1.1481,1.59155,2.1578,0,1.50481-.79626,3.75423-7.13907,3.75423-6.43345,0-6.82525-2.54473-6.82525-3.64604Z"/><path class="cls-2" d="m20.0591,48.29155h6.81842v-5.42082h-4.63821v-3.88434l2.82249-.13986c2.51451-.13937,3.26887-.89421,3.49303-4.02371h5.30874v13.46873h5.36527v4.91841h-19.16975v-4.91841Z"/><path class="cls-2" d="m41.57573,47.2297c0-.6145.11208-1.28503.1959-1.56475h5.70054c-.02826.1959-.05555.44735-.05555.64276,0,1.36934,1.11691,2.34737,4.02322,2.34737,3.40921,0,4.0242-1.06185,4.0242-1.98383,0-.67102-.55846-1.14615-2.29133-1.14615h-3.04568v-3.0179h2.59833c1.62079,0,2.31959-.44686,2.31959-1.39711s-1.00581-1.73238-3.52129-1.73238c-2.76596,0-3.66066.97803-3.66066,2.26355,0,.22319.02826.5029.05653.64276h-5.44909c-.11208-.27972-.27972-.92248-.27972-1.70461,0-2.82249,2.15196-6.03629,9.8641-6.03629,6.56697,0,9.22183,2.34737,9.22183,5.16986,0,1.70461-1.03407,2.87805-2.93457,3.38144v.08382c2.82249.47464,4.07975,2.12369,4.07975,4.10753,0,3.54907-2.82249,6.20344-10.81436,6.20344-8.27158,0-10.03174-3.40921-10.03174-6.25948Z"/><path class="cls-2" d="m63.93054,43.93257c0-5.61672,3.38095-9.38947,10.39527-9.38947,7.04161,0,10.45082,3.77274,10.45082,9.38947,0,5.33749-3.04568,9.55661-10.45082,9.55661-7.37688,0-10.39527-4.21912-10.39527-9.55661Zm13.8883.02778c0-2.99013-1.2017-4.49883-3.49303-4.49883-2.23577,0-3.43748,1.50871-3.43748,4.49883,0,3.0179,1.0906,4.61092,3.43748,4.61092,2.40341,0,3.49303-1.59301,3.49303-4.61092Z"/><path class="cls-2" d="m28.38188,69.73493l1.79297,2.00293c1.10938,1.23926,1.17383,2.37598.0957,3.34131-.99805.89355-2.04199.87451-3.15723-.37158l-.61719-.68994-1.23242,1.10352-1.29004-1.44043,4.4082-3.9458Zm-.50293,4.14258c.33008.36865.69629.41406,1.13184.02441.40918-.36572.42578-.77881.05957-1.1875l-.49805-.55566-1.23926,1.10938.5459.60938Z"/><path class="cls-2" d="m32.00004,73.67926l3.40527,2.71777-.9209,1.15381-1.89258-1.51074-.62891.78809,1.41406,1.12842-.57812.72461-1.41406-1.12842-.64551.80859,1.95508,1.56104-.9209,1.15381-3.46777-2.76855,3.69434-4.62842Z"/><path class="cls-2" d="m35.56449,76.55426l2.47363,1.34717c1.64453.89502,2.00488,1.87012,1.47559,2.84229-.33594.61621-.83398.9292-1.49707.77295l-.00781.01611c.53516.46533.49609,1.00781.19434,1.56104l-.68848,1.26465-1.69141-.9209.69336-1.27246c.22754-.41895.16406-.65869-.21582-.86523l-.86133-.46875-1.00684,1.84912-1.69922-.9248,2.83105-5.20117Zm1.14941,3.87402c.43457.23682.75977.16748.9834-.24365.21094-.38721.10938-.729-.36426-.9873l-.77539-.42139-.6582,1.20898.81445.44336Z"/><path class="cls-2" d="m42.32133,79.9068l2.60938.65674c1.61523.40674,2.30566,1.31348,1.95215,2.71875-.32812,1.30078-1.2041,1.86914-2.82715,1.45996l-.89941-.22607-.4043,1.60596-1.87598-.47266,1.44531-5.74268Zm1.9043,3.71826c.47949.12109.80957-.04688.95215-.61377.13477-.53271-.08301-.88428-.61621-1.01855l-.72363-.18213-.40723,1.61475.79492.19971Z"/><path class="cls-2" d="m47.17289,84.16168c.08887-1.86914,1.42871-2.9585,3.40625-2.86475,1.97656.09424,3.20703,1.30566,3.11816,3.1748-.08984,1.90576-1.4043,3.01416-3.4082,2.91895-1.97754-.09424-3.20898-1.2876-3.11621-3.229Zm4.52051.22412c.04883-1.03369-.47461-1.58105-1.18457-1.61475s-1.2832.46143-1.33203,1.49512c-.05078,1.06934.47266,1.6167,1.18262,1.65039s1.2832-.46143,1.33398-1.53076Z"/><path class="cls-2" d="m53.93363,81.47809l2.78418-.43457c1.85059-.28857,2.72949.2666,2.90039,1.36084.1084.69385-.09668,1.24512-.71875,1.52441l.00293.01807c.70801.04395,1.00684.49854,1.10449,1.12158l.22168,1.42334-1.90332.29688-.22363-1.43213c-.07324-.47168-.27051-.62305-.69727-.55615l-.96973.15088.3252,2.08203-1.91309.29834-.91309-5.85352Zm3.26855,2.37842c.48926-.07617.70508-.32861.63281-.79102-.06738-.43604-.35547-.64648-.88965-.56299l-.87207.13623.21289,1.36084.91602-.14307Z"/><path class="cls-2" d="m61.19242,81.55377l-1.43848.49756-.49512-1.43018,4.7002-1.62598.49414,1.43066-1.43848.49756,1.44336,4.17236-1.82227.62988-1.44336-4.17188Z"/><path class="cls-2" d="m64.15043,78.81891l1.72754-.85254,2.62012,5.31152-1.72754.85205-2.62012-5.31104Z"/><path class="cls-2" d="m67.8516,80.40045c-1.07227-1.5332-.67871-3.21387.94238-4.34863,1.62207-1.13477,3.33594-.92871,4.4082.60449,1.09375,1.56201.73242,3.24219-.91113,4.39258-1.62109,1.13477-3.3252.94336-4.43945-.64844Zm3.71289-2.58691c-.59375-.84766-1.3418-.96045-1.9248-.55273-.58203.40723-.73242,1.14941-.13965,1.99707.61426.87695,1.36328.98975,1.94531.58203.58203-.40723.73242-1.14941.11914-2.02637Z"/><path class="cls-2" d="m71.55863,74.17438l1.8291-1.97559,3.62891,1.06494.01172-.01318-2.52051-2.26074,1.13184-1.22266,4.34766,4.02637-1.64062,1.77051-4.2793-1.25049-.00586.00684,2.96973,2.66455-1.12598,1.21533-4.34668-4.02588Z"/></svg>